<svg width="750" height="300" viewBox="0 0 750 300" fill="none" xmlns="http://www.w3.org/2000/svg">
<g clip-path="url(#clip0_0_1)">
<path d="M394.976 180.345C387.647 179.341 384.534 175.125 381.422 170.908C380.418 168.799 361.542 141.59 356.321 132.253V166.791C356.321 172.012 356.321 175.125 360.538 178.337H346.984C351.201 175.225 351.201 172.012 351.201 166.791V130.145C351.201 124.924 350.197 122.815 345.98 119.703H360.639L389.956 164.683V130.145C389.956 124.924 389.956 121.811 385.739 118.598H399.293C395.076 121.711 395.076 124.924 395.076 130.145L394.976 180.345ZM289.353 150.024C289.353 163.578 295.679 175.125 307.125 175.125C317.566 175.125 324.896 163.578 324.896 150.024C324.896 136.47 318.57 124.924 307.125 124.924C296.683 123.819 289.353 135.365 289.353 150.024ZM335.337 148.92C335.337 166.691 322.787 180.345 307.125 180.345C291.462 180.345 278.912 167.795 278.912 150.024C278.912 133.257 291.462 119.703 308.229 119.703C323.791 119.703 335.337 133.257 335.337 148.92ZM448.289 174.02V160.466C448.289 156.249 448.289 152.133 444.072 151.028H457.627V179.241C453.41 180.245 444.072 181.349 440.859 181.349C438.751 181.349 410.538 181.349 410.538 151.028C410.538 123.819 433.53 120.707 438.751 120.707C443.972 120.707 451.301 121.711 455.518 123.819V135.365C451.301 130.145 448.189 125.928 439.855 125.928C433.53 125.928 420.98 131.149 420.98 152.032C420.98 157.253 421.984 169.803 432.526 175.024C435.739 174.02 443.068 176.129 448.289 174.02ZM717.064 174.02V160.466C717.064 156.249 717.064 152.133 712.847 151.028H726.402V179.241C722.185 180.245 712.847 181.349 709.635 181.349C707.526 181.349 679.313 181.349 679.313 151.028C679.313 123.819 702.305 120.707 707.526 120.707C712.747 120.707 720.076 121.711 724.293 123.819V135.365C720.076 130.145 716.964 125.928 708.631 125.928C702.305 125.928 689.755 131.149 689.755 152.032C689.755 157.253 690.759 169.803 701.301 175.024C703.51 174.02 710.839 176.129 717.064 174.02ZM472.386 163.578C475.498 169.904 481.823 175.125 488.048 175.125C494.273 175.125 498.49 169.904 498.49 163.578C498.49 151.028 473.39 153.137 473.39 135.365C473.39 122.815 484.936 118.598 492.265 118.598C495.378 118.598 500.598 119.602 503.811 120.707V131.149C499.594 124.924 496.482 122.815 491.261 122.815C487.044 122.815 482.928 127.032 482.928 131.149C482.928 144.703 508.028 140.586 508.028 161.47C508.028 173.016 498.59 179.241 487.145 179.241C485.036 179.241 478.811 178.237 473.59 176.129L472.386 163.578ZM533.028 125.928V174.02C540.357 175.024 553.912 174.02 552.908 161.47C552.908 154.141 547.687 148.92 536.141 148.92L538.249 144.703C542.466 143.699 548.691 142.594 548.691 134.261C548.691 125.928 539.253 123.819 533.028 125.928ZM563.349 161.47C563.349 168.799 559.133 173.016 553.912 176.129C547.586 179.241 540.357 179.241 534.032 179.241H520.478C524.695 177.133 524.695 170.908 524.695 166.691V133.257C524.695 129.04 525.699 122.815 520.478 120.707H540.357C551.904 120.707 559.233 124.924 559.233 133.257C559.233 139.582 555.016 142.695 546.683 145.807C552.908 146.912 563.349 150.024 563.349 161.47ZM611.442 131.149C609.333 128.036 607.225 123.819 589.454 125.928V144.803H606.221V153.137C605.217 151.028 601 148.92 598.892 148.92H590.558V174.02C611.442 176.129 615.659 167.795 616.663 165.687L612.446 178.237H575.799C580.016 176.129 580.016 170.908 580.016 166.691V131.149C580.016 126.932 580.016 121.711 575.799 119.602H611.341C611.442 120.707 611.442 131.149 611.442 131.149ZM677.305 178.237H668.972C665.859 178.237 661.643 178.237 657.426 172.012C652.205 165.687 641.763 150.024 641.763 150.024L643.872 145.807C649.092 144.803 654.313 141.59 654.313 133.257C654.313 128.036 649.092 123.819 643.872 123.819C641.763 123.819 640.759 123.819 638.651 123.819V164.582C638.651 168.799 637.647 175.024 642.868 177.133H626.1C630.317 175.024 629.213 169.803 630.317 164.582V131.149C630.317 126.932 631.321 120.707 626.1 119.602H646.984C659.534 119.602 665.759 125.827 665.759 134.261C665.759 141.59 659.534 145.807 652.205 147.815C658.53 158.357 669.976 176.129 677.305 178.237ZM277.807 178.237H268.369C264.153 178.237 261.04 176.129 257.928 172.012L241.161 146.912L255.819 131.249C260.036 126.028 262.145 121.811 255.819 119.703H272.586L250.598 143.799C256.924 154.241 269.474 175.125 277.807 178.237Z" fill="#D9D9D9"/>
<path d="M229.715 133.257C229.715 129.04 230.719 122.815 225.498 120.707H243.269C239.052 122.815 239.052 129.04 239.052 133.257V166.691C239.052 170.908 238.048 177.133 243.269 179.241H225.498C229.715 177.133 229.715 170.908 229.715 166.691V133.257Z" fill="#D9D9D9"/>
</g>
<g clip-path="url(#clip1_0_1)">
<path d="M0 300H200V0H0V300Z" fill="#D71539"/>
<path d="M98.32 98.4C86.64 98.4 75.84 100.08 65.84 103.44L53.36 81.76C53.36 81.76 53.36 81.76 53.36 80.96C53.36 80.96 53.36 80.96 54.16 80.96C54.96 80.96 59.2 80.96 59.2 80.96C59.2 80.96 60 80.96 60 81.76C60 82.56 60 85.92 60 85.92C60 86.72 60.8 86.72 60.8 85.92C60.8 85.12 61.6 83.44 61.6 82.56C61.6 81.76 62.4 81.76 63.28 82.56L66.64 84.24C66.64 84.24 66.64 84.24 66.64 85.04C66.64 85.84 65.84 88.4 65.84 89.2C65.84 89.2 65.84 90 65.04 90C64.24 90 61.68 89.2 61.68 89.2C61.68 89.2 60.88 89.2 60.88 90C61.68 91.68 63.36 93.36 65.92 94.16C69.28 94.96 72.56 94.16 74.24 91.68C75.04 90 75.92 88.32 75.92 86.64V85.84C75.92 85.84 75.92 85.84 75.12 85.84C74.32 86.64 74.32 87.52 73.44 87.52C72.64 88.32 71.76 88.32 70.96 88.32C69.28 87.52 68.48 85.84 68.48 84.16C68.48 83.36 69.28 82.48 70.16 81.68C70.96 80.88 71.84 80.88 72.64 81.68C73.44 81.68 73.44 82.48 74.32 82.48C74.32 82.48 75.12 81.68 74.32 81.68C73.52 80.88 71.84 79.2 70.96 75.84C70.96 73.36 71.76 70.8 72.64 70C72.64 70 72.64 70 73.44 70C75.92 70.8 77.6 73.36 77.6 75.84C77.6 78.32 76.8 80.88 76.8 80.88V81.68H77.6C78.4 80.88 79.28 79.2 80.08 79.2C80.88 79.2 82.56 79.2 82.56 80.88C83.36 81.68 83.36 84.24 83.36 85.04C82.56 85.84 81.68 86.72 80.88 86.72C80.08 86.72 79.2 85.92 78.4 85.92C78.4 85.92 78.4 85.92 77.6 85.92C77.6 85.92 77.6 86.72 77.6 87.6C78.4 90.08 81.76 92.64 84.24 92.64C87.6 92.64 90.88 90.96 92.56 87.6C93.36 86.8 93.36 85.92 93.36 84.24C93.36 84.24 93.36 84.24 93.36 83.44C92.56 83.44 92.56 84.24 91.68 84.24L92.48 85.04C92.48 85.04 92.48 85.04 91.68 85.04C90.88 84.24 90 82.56 88.32 80.88C88.32 80.88 88.32 80.88 88.32 80.08C89.12 78.4 90 77.6 90.8 75.92C90.8 75.92 90.8 75.92 91.6 75.92C93.28 76.72 94.08 77.6 95.76 78.4C95.76 78.4 96.56 78.4 96.56 77.6C96.56 76.8 94.88 75.92 94.88 75.12C94.88 74.32 94.08 74.32 94.88 74.32L99.04 71.84C99.04 71.84 102.4 74.32 103.2 74.32C104 74.32 103.2 75.12 103.2 75.12C103.2 75.92 101.52 77.6 101.52 78.48C101.52 79.28 102.32 79.28 102.32 79.28C104 78.48 104.8 77.6 106.48 76.8C106.48 76.8 106.48 76.8 107.28 76.8C108.08 78.48 108.96 79.28 109.76 80.96C109.76 80.96 109.76 80.96 109.76 81.76C108.96 83.44 108.08 84.24 106.4 85.92C106.4 85.92 106.4 85.92 105.6 85.92L102.24 83.44C101.44 83.44 101.44 82.64 100.56 82.64C100.56 82.64 100.56 82.64 100.56 83.44C100.56 84.24 100.56 85.12 101.36 86.8C103.04 90.16 106.4 91.84 109.68 91.84C113.04 91.84 115.52 89.36 116.32 86.8C116.32 86.8 116.32 86 116.32 85.12C116.32 85.12 116.32 85.12 115.52 85.12C114.72 85.92 113.84 86.8 113.04 85.92C112.24 85.92 111.36 85.12 110.56 84.24C109.76 82.56 110.56 80.88 111.36 80.08C112.16 79.28 113.04 78.4 113.84 78.4C114.64 78.4 115.52 80.08 116.32 80.88C116.32 80.88 116.32 80.88 117.12 80.88C117.12 80.88 117.92 80.08 117.12 80.08C117.12 80.08 116.32 77.6 116.32 75.04C116.32 72.48 118.8 70 120.48 69.2H121.28C122.96 70 123.76 72.56 122.96 75.04C122.96 77.52 120.48 80.08 119.6 80.88C119.6 81.68 119.6 81.68 119.6 81.68C120.4 81.68 121.28 80.88 121.28 80.88C122.08 80.08 122.96 80.88 123.76 80.88C124.56 81.68 125.44 82.56 125.44 83.36C125.44 85.04 124.64 86.72 122.96 87.52C122.16 87.52 121.28 87.52 120.48 86.72C119.68 85.92 119.68 85.92 118.8 85.04C118.8 85.04 118.8 85.04 118 85.04V85.84C118 87.52 118.8 90 119.68 90.88C121.36 93.36 125.52 95.04 128 93.36C129.68 92.56 132.16 91.68 133.04 89.2C133.04 88.4 132.24 88.4 132.24 88.4C132.24 88.4 129.76 89.2 128.88 89.2C128.08 89.2 128.08 89.2 128.08 88.4C128.08 88.4 127.28 85.04 127.28 84.24C127.28 83.44 127.28 83.44 127.28 83.44L130.64 81.76C134 82.56 134 82.56 134 83.44C134 83.44 134.8 85.12 134.8 86.8C134.8 87.6 135.6 87.6 135.6 86.8C135.6 86.8 135.6 83.44 135.6 82.64C135.6 81.84 135.6 81.84 136.4 81.84H141.44C142.24 81.84 142.24 81.84 142.24 81.84C142.24 81.84 142.24 81.84 142.24 82.64L130 104.16C120.8 100 110 98.4 98.32 98.4Z" fill="#FFF572"/>
<path d="M98.32 58.4C101.68 58.4 104.16 60.88 104.16 64.24C104.16 67.6 101.68 70.08 98.32 70.08C98.32 70.08 98.32 70.08 97.52 70.08C94.16 70.08 91.68 67.6 91.68 64.24C93.28 60.88 95.84 58.4 98.32 58.4ZM54.16 67.52C56.64 67.52 59.2 69.2 59.2 71.68C59.2 74.16 57.52 76.72 55.04 76.72C52.56 76.72 50.88 74.24 50.88 71.68C50 69.2 52.48 67.52 54.16 67.52ZM60 55.84C62.48 55.84 64.16 57.52 64.16 60C64.16 62.48 62.48 64.16 60 64.16C57.52 64.16 55.84 62.48 55.84 60C55.84 58.4 57.52 55.84 60 55.84ZM72.48 52.56C74.96 52.56 76.64 54.24 76.64 56.72C76.64 59.2 74.96 60.88 72.48 60.88C70 60.88 68.32 59.2 68.32 56.72C68.32 54.16 70 52.56 72.48 52.56ZM85.84 57.52C88.32 57.52 90.88 59.2 90.88 61.68C90.88 64.16 88.4 66.72 85.84 66.72C83.36 66.72 81.68 64.24 81.68 61.68C80.8 60 83.28 58.4 85.84 57.52ZM143.28 67.52C140.8 67.52 138.24 69.2 138.24 71.68C138.24 74.16 139.92 76.72 142.4 76.72C144.88 76.72 146.56 74.24 146.56 71.68C147.52 69.2 145.84 67.52 143.28 67.52ZM138.32 55.84C135.84 55.84 134.16 57.52 134.16 60C134.16 62.48 135.84 64.16 138.32 64.16C140.8 64.16 142.48 62.48 142.48 60C142.48 58.4 140.8 55.84 138.32 55.84ZM124.96 52.56C122.48 52.56 120.8 54.24 120.8 56.72C120.8 59.2 122.48 60.88 124.96 60.88C127.44 60.88 129.12 59.2 129.12 56.72C130 54.16 127.52 52.56 124.96 52.56ZM112.48 57.52C110 57.52 108.32 59.2 108.32 61.68C108.32 64.16 110 66.72 112.48 66.72C114.96 66.72 116.64 65.04 116.64 62.56C116.64 60.08 114.96 57.52 112.48 57.52ZM101.68 41.68L100 46.64C101.68 46.64 103.36 45.84 104.16 44.96V51.6C102.48 50.8 100.8 50.8 100 49.92L101.68 55.76C100.88 54.96 99.2 54.96 98.32 54.96C97.52 54.96 95.84 54.96 94.96 55.76L96.64 49.92C94.96 49.92 93.28 50.72 92.48 51.6V45.76C94.16 46.56 95.84 46.56 96.64 47.44L95.84 41.6H101.68V41.68ZM44.16 133.36C43.36 136.72 43.36 140.88 45.84 143.36C47.52 145.84 50.88 146.72 54.16 145.84C55.84 145.04 58.32 143.36 58.32 141.68C58.32 140 58.32 138.32 56.64 136.64C54.96 135.84 53.28 135.84 51.6 135.84C50.8 136.64 49.92 137.52 49.12 138.32C46.64 137.52 44.96 135.04 44.16 133.36ZM62.48 118.4C67.52 120.08 71.68 125.04 73.28 130.08L84.96 124.24C79.12 118.4 70.8 116.72 62.48 118.4ZM90.8 120.88C93.28 120.08 94.96 118.4 97.44 117.52L100.8 122.56L69.12 139.2C69.12 134.16 67.44 128.4 63.28 125.04C60.8 122.56 56.64 121.68 53.28 122.56C51.6 123.36 49.12 125.04 49.12 127.6C49.12 129.28 49.12 130.96 49.92 131.76C51.6 130.96 54.08 130.08 56.56 130.96C59.92 131.76 63.2 134.32 64.08 136.8C65.76 140.96 64.08 145.12 61.6 148.48C58.24 151.84 52.4 152.64 48.24 151.84C42.4 150.16 39.04 144.32 38.24 139.36C37.44 129.36 44.88 120.16 54.88 116C62.4 112.64 74.08 111.84 81.52 115.2C84.16 115.84 87.52 118.4 90.8 120.88ZM104.16 224.16C101.68 224.16 99.12 224.96 98.32 226.64C97.52 228.32 96.64 230.8 98.32 231.68C99.12 233.36 100.8 234.16 103.36 234.16C102.56 237.52 100 240 97.52 242.48C100.88 240.8 104.16 239.12 106.72 236.64C109.2 234.16 110.88 230 108.4 226.64C106.64 225.84 105.84 225.04 104.16 224.16ZM89.12 211.68C77.44 209.2 64.96 210 54.96 215.04C48.32 218.4 43.28 224.24 43.28 230.88C43.28 236.72 48.32 240.88 53.28 243.36C51.6 241.68 51.6 239.2 51.6 236.72C51.6 234.24 52.4 231.68 54.08 229.2C59.12 223.36 67.44 220.88 75.76 222.56C79.12 217.52 84.96 213.36 90.8 211.76C91.68 211.68 89.12 211.68 89.12 211.68ZM120 185.84C125.04 188.32 126.64 193.36 126.64 197.52V216.72V223.36C126.64 229.2 129.12 235.04 133.28 240L147.44 232.48C144.08 227.44 141.6 222.48 141.6 215.84V205.04C141.6 202.56 141.6 199.2 139.92 196.72C135.84 190 127.52 188.4 120 185.84ZM104.96 166.72L95.76 171.76V199.28L84.08 205.92C91.6 206.72 98.24 208.4 104.88 210.08C104.96 209.2 104.96 166.72 104.96 166.72ZM110.8 163.36V184.16L120 179.12V169.92C120 167.44 120 164.88 118.32 163.28C117.52 160.88 113.28 161.68 110.8 163.36ZM134.96 151.68C129.92 152.48 125.76 155.04 121.6 157.52C124.96 158.32 126.64 161.68 126.64 165.04V175.84L141.68 168.32V163.28C141.68 160.8 141.68 157.44 140.88 154.96C139.12 152.56 137.52 151.68 134.96 151.68ZM89.12 195.04V140L74.96 147.52V169.2C71.6 169.2 67.44 169.2 64.96 170C62.48 170.8 59.92 173.36 59.12 176.64H74.96V203.28C74.16 202.56 89.12 195.04 89.12 195.04ZM104.96 160V132.48L95.76 137.52V165.04L104.96 160ZM134.16 118.4C129.12 119.2 125.84 121.76 121.68 123.44C127.52 125.12 127.52 130.96 127.52 135.92L141.68 128.4C141.68 125.92 141.68 123.36 140.88 120.88C138.32 118.4 136.64 117.52 134.16 118.4ZM145.84 118.4C147.52 121.76 146.64 126.72 146.64 130.88L144.96 131.68L119.92 145.04V132.56C119.92 130.88 119.92 129.2 118.24 128.4C116.56 126.72 113.2 127.6 110.72 128.4V156.72L126.56 149.2C131.6 146.72 137.36 145.84 142.4 148.4C147.44 150.88 148.24 155.92 148.24 160.08V171.76L127.44 182.56C134.96 185.04 142.48 188.4 146.64 195.04C150 201.68 147.44 211.68 149.12 219.2C149.92 223.36 151.6 226.72 154.16 230L160.8 226.64L164.16 231.68L142.48 243.36L132.48 248.4C125.84 240.88 120.8 233.44 120 225.04V217.52V200C120 196.64 120 192.48 115.84 190.8C114.16 190 112.48 190 110.8 190.8V213.28C100 213.28 90 215.76 83.28 223.28C81.6 224.96 79.92 227.44 78.24 229.92C74.08 228.24 67.44 227.44 63.2 229.92C59.84 231.6 57.36 234.96 58.16 239.12C58.96 243.28 63.2 246.64 67.36 247.44C76.56 249.12 88.16 247.44 93.2 239.92L94 238.24C90.64 235.76 88.96 232.4 89.84 228.24C90.64 224.08 94.88 220.72 99.04 219.92C104.08 219.12 108.24 220.72 111.52 224.08C114.88 227.44 115.68 232.4 113.2 236.56C109.04 246.56 97.36 250.72 87.36 252.4C74.88 254.88 60.72 254.08 49.84 249.04C42.32 245.68 36.48 239.84 35.68 232.4C34.88 223.2 40.72 215.76 49.04 210.72C54.08 208.24 60.72 205.68 66.56 205.68V183.2H50.8C50.8 176.56 53.28 169.04 60.8 165.68C63.28 164.88 65.84 164 68.32 164V144.8L78.32 139.76L111.68 122.24L125.04 114.72C129.2 112.24 135.84 111.36 140.88 113.92C143.28 115.04 144.96 116.72 145.84 118.4Z" fill="#FFF572"/>
</g>
<defs>
<clipPath id="clip0_0_1">
<rect width="500" height="62.249" fill="white" transform="translate(226 119)"/>
</clipPath>
<clipPath id="clip1_0_1">
<rect width="200" height="300" fill="white"/>
</clipPath>
</defs>
</svg>
