<svg width="150" height="60" viewBox="0 0 150 60" fill="none" xmlns="http://www.w3.org/2000/svg">
<path d="M33.49 27.61C35.49 27.61 36.41 28.67 36.41 30.95V39.4H39.65V30.06C39.65 26.62 37.84 24.65 34.7 24.65C33.7535 24.5885 32.809 24.7974 31.9768 25.2525C31.1446 25.7076 30.459 26.3899 30 27.22L29.76 27.72V25.06H26.59V39.4H29.83V31.15C29.7987 30.6666 29.8729 30.1822 30.0474 29.7303C30.222 29.2784 30.4928 28.87 30.841 28.5332C31.1891 28.1964 31.6064 27.9394 32.0639 27.78C32.5213 27.6206 33.0079 27.5626 33.49 27.61V27.61ZM107.5 27.61C109.5 27.61 110.42 28.67 110.42 30.95V39.4H113.66V30.06C113.66 26.62 111.85 24.65 108.66 24.65C107.72 24.5962 106.784 24.8089 105.96 25.2635C105.135 25.7182 104.456 26.3964 104 27.22L103.76 27.72V25.06H100.6V39.4H103.84V31.15C103.809 30.6666 103.883 30.1822 104.057 29.7303C104.232 29.2784 104.503 28.87 104.851 28.5332C105.199 28.1964 105.616 27.9394 106.074 27.78C106.531 27.6206 107.018 27.5626 107.5 27.61V27.61ZM56.53 31.93C56.53 27.58 53.72 24.65 49.53 24.65C45.34 24.65 42.26 27.8 42.26 32.3C42.26 36.8 45.26 39.8 49.88 39.8C51.0352 39.8436 52.1853 39.6261 53.2449 39.1639C54.3045 38.7016 55.2462 38.0064 56 37.13L54.08 35.24C53.5695 35.8133 52.9398 36.2679 52.235 36.572C51.5301 36.876 50.7673 37.0221 50 37C48.9182 37.0915 47.8443 36.7501 47.0138 36.0509C46.1834 35.3516 45.6641 34.3516 45.57 33.27V33.12H56.46C56.5 32.73 56.53 32.32 56.53 31.93ZM45.53 30.93C45.624 29.9496 46.092 29.0431 46.8369 28.3987C47.5818 27.7544 48.5463 27.4218 49.53 27.47C50.0056 27.4312 50.484 27.4917 50.9349 27.6477C51.3859 27.8037 51.7994 28.0519 52.1493 28.3763C52.4991 28.7008 52.7776 29.0945 52.9671 29.5324C53.1566 29.9703 53.253 30.4429 53.25 30.92L45.53 30.93ZM75.32 27.61C77.15 27.61 78 28.61 78 30.89V39.4H81.24V30C81.24 26.58 79.5 24.62 76.47 24.62C75.4756 24.5591 74.485 24.7885 73.6187 25.2803C72.7523 25.7721 72.0475 26.505 71.59 27.39L71.47 27.67L71.35 27.38C71.0273 26.5256 70.4398 25.7969 69.6733 25.3003C68.9068 24.8037 68.0016 24.5654 67.09 24.62C66.1753 24.5755 65.2667 24.7903 64.4687 25.2396C63.6708 25.689 63.0161 26.3547 62.58 27.16L62.33 27.66V25.06H59.15V39.4H62.39V31.12C62.3509 30.6509 62.4142 30.1789 62.5755 29.7367C62.7368 29.2945 62.9922 28.8926 63.3241 28.5588C63.656 28.225 64.0565 27.9672 64.4978 27.8034C64.9391 27.6396 65.4107 27.5736 65.88 27.61C67.71 27.61 68.56 28.61 68.56 30.89V39.4H71.8V31.12C71.7621 30.6486 71.8272 30.1745 71.9909 29.7308C72.1545 29.2871 72.4127 28.8843 72.7476 28.5503C73.0825 28.2164 73.4861 27.9593 73.9303 27.7969C74.3745 27.6345 74.8487 27.5708 75.32 27.61ZM17 27.61C18.83 27.61 19.68 28.61 19.68 30.89V39.4H22.9V30C22.9 26.58 21.16 24.62 18.13 24.62C17.1356 24.5591 16.145 24.7885 15.2787 25.2803C14.4123 25.7721 13.7075 26.505 13.25 27.39L13.12 27.67L13 27.41C12.6741 26.5558 12.0845 25.8276 11.3166 25.3313C10.5488 24.835 9.64271 24.5963 8.73 24.65C7.81658 24.605 6.90909 24.8197 6.11267 25.2692C5.31624 25.7187 4.66348 26.3847 4.23 27.19L3.98 27.69V25.06H0.809999V39.4H4.05V31.12C4.01093 30.6509 4.07423 30.1789 4.23552 29.7367C4.39681 29.2945 4.65224 28.8926 4.98413 28.5588C5.31603 28.225 5.71648 27.9672 6.15777 27.8034C6.59907 27.6396 7.07069 27.5736 7.54 27.61C9.37 27.61 10.22 28.61 10.22 30.89V39.4H13.46V31.12C13.4217 30.6468 13.4872 30.1708 13.652 29.7256C13.8168 29.2803 14.0769 28.8764 14.414 28.5421C14.7512 28.2078 15.1573 27.9511 15.604 27.7901C16.0506 27.6292 16.5271 27.5677 17 27.61V27.61ZM91.06 24.65C90.056 24.6178 89.056 24.7924 88.1222 25.1628C87.1885 25.5333 86.3408 26.0917 85.6319 26.8034C84.923 27.5152 84.3679 28.365 84.0012 29.3002C83.6344 30.2355 83.4639 31.2361 83.5 32.24C83.5 34.245 84.2965 36.168 85.7143 37.5857C87.132 39.0035 89.055 39.8 91.06 39.8C93.065 39.8 94.988 39.0035 96.4057 37.5857C97.8235 36.168 98.62 34.245 98.62 32.24C98.6562 31.2361 98.4856 30.2355 98.1188 29.3002C97.7521 28.365 97.197 27.5152 96.4881 26.8034C95.7792 26.0917 94.9315 25.5333 93.9978 25.1628C93.064 24.7924 92.064 24.6178 91.06 24.65V24.65ZM91.06 36.88C88.53 36.88 86.83 35.01 86.83 32.24C86.83 29.47 88.53 27.58 91.06 27.58C93.59 27.58 95.3 29.45 95.3 32.24C95.3 35.03 93.59 36.88 91.06 36.88ZM117.51 24.47V39.4H120.75V26.8L117.51 24.47ZM134.1 34.39C133.815 35.1021 133.324 35.7129 132.69 36.144C132.056 36.5752 131.307 36.8071 130.54 36.81C127.99 36.81 126.34 34.99 126.34 32.17C126.34 29.35 127.99 27.54 130.54 27.54C131.304 27.5302 132.054 27.7523 132.69 28.1773C133.325 28.6022 133.817 29.2098 134.1 29.92L136.77 28.44C136.211 27.2244 135.298 26.2058 134.151 25.5171C133.004 24.8285 131.676 24.5019 130.34 24.58C126.03 24.58 123.01 27.7 123.01 32.17C123.01 36.64 126.01 39.73 130.34 39.73C131.672 39.804 132.996 39.4755 134.139 38.7871C135.283 38.0987 136.192 37.0823 136.75 35.87L134.1 34.39V34.39ZM124.24 19.09V23.92L117.54 19.1L124.24 19.09Z" fill="white"/>
<path d="M132.84 19.1H117.54V14.61H126.64L132.84 19.1Z" fill="#F66600"/>
</svg>
