<svg width="364" height="137" viewBox="0 0 364 137" fill="none" xmlns="http://www.w3.org/2000/svg">
<g clip-path="url(#clip0_5_37)">
<path d="M33.1635 68.1612V68.9361H29.8738V63.2425H30.7991V68.1612H33.1635Z" fill="white"/>
<path d="M34.8875 68.9361H33.9582V63.2425H34.8875V68.9361Z" fill="white"/>
<path d="M40.9522 63.2425V68.936H40.4821C40.4186 68.9393 40.3553 68.9261 40.2984 68.8976C40.2416 68.8692 40.193 68.8265 40.1575 68.7737L37.0301 64.7567C37.0381 64.8339 37.044 64.9091 37.048 64.9843C37.0519 65.0595 37.0539 65.1288 37.0539 65.1921V68.936H36.2394V63.2425H36.7224C36.7558 63.2422 36.7892 63.2442 36.8224 63.2485C36.8489 63.2524 36.8748 63.2597 36.8996 63.2702C36.9246 63.2819 36.9474 63.298 36.9668 63.3177C36.9914 63.3423 37.0139 63.3688 37.0342 63.3969L40.1655 67.418C40.1576 67.3358 40.1516 67.2557 40.1477 67.1765C40.1437 67.0973 40.1417 67.0241 40.1417 66.9548V63.2425L40.9522 63.2425Z" fill="white"/>
<path d="M44.3804 66.9359C44.384 67.2265 44.3447 67.5159 44.2637 67.795C44.1943 68.0334 44.0756 68.2546 43.9153 68.4442C43.7585 68.6234 43.5624 68.764 43.3423 68.8549C43.0903 68.9555 42.8208 69.0046 42.5496 68.9994C42.4132 68.9993 42.2771 68.9907 42.1418 68.9737C42.0007 68.9552 41.8609 68.9281 41.7232 68.8925L41.7707 68.3393C41.776 68.2913 41.7977 68.2465 41.832 68.2126C41.8721 68.1784 41.924 68.1613 41.9765 68.1651C42.0386 68.1673 42.1001 68.1773 42.1596 68.1948C42.4002 68.2454 42.6499 68.2311 42.8831 68.1532C43.0063 68.1074 43.1154 68.0303 43.1998 67.9295C43.2924 67.8151 43.3587 67.6816 43.3937 67.5386C43.4409 67.349 43.4628 67.154 43.4591 66.9587V63.2424H44.3804V66.9359Z" fill="white"/>
<path d="M49.2318 68.1889L49.2279 68.9361H45.6769V63.2425H49.2279V63.9897H46.6062V65.7058H48.7014V66.4292H46.6062V68.1889H49.2318Z" fill="white"/>
<path d="M51.1607 63.9897V65.8127H53.3865V66.5599H51.1607V68.9361H50.2314V63.2425H53.7824V63.9897H51.1607Z" fill="white"/>
<path d="M60.0015 66.0898C60.0057 66.4877 59.9363 66.883 59.7966 67.2556C59.6676 67.5982 59.4703 67.911 59.2167 68.175C58.9627 68.4358 58.6574 68.641 58.32 68.7777C57.572 69.068 56.7424 69.068 55.9943 68.7777C55.6566 68.6405 55.3507 68.4354 55.0957 68.175C54.8411 67.9114 54.643 67.5985 54.5137 67.2556C54.2406 66.502 54.2406 65.6765 54.5137 64.9229C54.6432 64.5795 54.8412 64.2661 55.0957 64.0016C55.3504 63.7403 55.6563 63.5344 55.9943 63.3969C56.7424 63.1066 57.572 63.1066 58.32 63.3969C58.6577 63.5339 58.963 63.7399 59.2167 64.0016C59.4702 64.2664 59.6674 64.5798 59.7966 64.9229C59.9363 65.2959 60.0057 65.6915 60.0015 66.0898V66.0898ZM59.0573 66.0898C59.0615 65.7906 59.0167 65.4927 58.9247 65.208C58.8458 64.9625 58.7164 64.7363 58.5447 64.5439C58.3789 64.3611 58.1743 64.2177 57.9459 64.1243C57.4382 63.929 56.8761 63.929 56.3684 64.1243C56.1396 64.2181 55.9345 64.3614 55.7676 64.5439C55.5951 64.7363 55.4643 64.9624 55.3837 65.208C55.2042 65.7832 55.2042 66.3994 55.3837 66.9745C55.4643 67.2198 55.5951 67.4456 55.7676 67.6376C55.9347 67.8186 56.1399 67.9602 56.3684 68.0523C56.8766 68.2449 57.4377 68.2449 57.9459 68.0523C58.1741 67.9607 58.3787 67.819 58.5447 67.6376C58.7163 67.4456 58.8458 67.2197 58.9247 66.9745C59.0169 66.6888 59.0617 66.3899 59.0573 66.0898V66.0898Z" fill="white"/>
<path d="M65.3467 68.936H64.5203C64.4491 68.9408 64.378 68.9255 64.3151 68.8919C64.2521 68.8584 64.1998 68.8078 64.1641 68.746L62.8359 66.829C62.7992 66.7705 62.749 66.7216 62.6895 66.6865C62.6149 66.6532 62.5335 66.6382 62.4519 66.6429H61.9383V68.936H61.0129V63.2425H62.6894C63.0154 63.2367 63.3407 63.2753 63.6563 63.3573C63.8983 63.4196 64.125 63.5307 64.3224 63.6839C64.4917 63.8177 64.6242 63.9925 64.7074 64.1916C64.8604 64.5795 64.873 65.0087 64.743 65.4049C64.6856 65.5745 64.5989 65.7326 64.4867 65.8721C64.3703 66.0156 64.2304 66.1385 64.073 66.2353C63.9001 66.3426 63.7124 66.424 63.5158 66.4768C63.6337 66.5502 63.7337 66.6489 63.8087 66.7657L65.3467 68.936ZM62.6657 65.971C62.853 65.9744 63.0397 65.9484 63.2189 65.8938C63.3641 65.8493 63.4988 65.7759 63.6148 65.678C63.7183 65.5879 63.7996 65.4752 63.8523 65.3485C63.9059 65.2131 63.9325 65.0685 63.9305 64.9229C63.939 64.7884 63.9155 64.6539 63.862 64.5302C63.8085 64.4065 63.7265 64.2973 63.6227 64.2113C63.3476 64.0279 63.0192 63.9415 62.6895 63.9659H61.9383V65.971H62.6657Z" fill="white"/>
<path d="M69.5894 68.1889L69.5855 68.9361H66.0345V63.2425H69.5855V63.9897H66.9638V65.7058H69.059V66.4292H66.9638V68.1889H69.5894Z" fill="white"/>
<path d="M75.3018 63.2425V68.936H74.8317C74.7682 68.9393 74.7049 68.9261 74.6481 68.8976C74.5912 68.8692 74.5426 68.8265 74.5071 68.7737L71.3798 64.7567C71.3877 64.8339 71.3936 64.9091 71.3976 64.9843C71.4015 65.0595 71.4035 65.1288 71.4035 65.1921V68.936H70.5891V63.2425H71.072C71.1054 63.2422 71.1388 63.2442 71.172 63.2485C71.1985 63.2524 71.2245 63.2597 71.2492 63.2702C71.2742 63.2819 71.297 63.298 71.3165 63.3177C71.341 63.3423 71.3635 63.3688 71.3838 63.3969L74.5151 67.4179C74.507 67.3358 74.5012 67.2556 74.4973 67.1765C74.4932 67.0973 74.4912 67.0241 74.4912 66.9548V63.2425L75.3018 63.2425Z" fill="white"/>
<path d="M77.587 68.9361H76.6577V63.2425H77.587V68.9361Z" fill="white"/>
<path d="M83.6532 63.2425V68.936H83.1826C83.1191 68.9393 83.0558 68.9261 82.9989 68.8976C82.942 68.8692 82.8935 68.8265 82.858 68.7737L79.7306 64.7567C79.7387 64.8339 79.7445 64.9091 79.7484 64.9843C79.7525 65.0595 79.7545 65.1288 79.7545 65.1921V68.936H78.94V63.2425H79.423C79.4564 63.2422 79.4898 63.2442 79.5229 63.2485C79.5495 63.2524 79.5754 63.2597 79.6001 63.2702C79.6252 63.2819 79.648 63.298 79.6674 63.3177C79.6919 63.3423 79.7144 63.3688 79.7347 63.3969L82.866 67.4179C82.8579 67.3358 82.8522 67.2556 82.8482 67.1765C82.8442 67.0973 82.8421 67.0241 82.8421 66.9548V63.2425L83.6532 63.2425Z" fill="white"/>
<path d="M89.6704 66.1333V68.3868C89.0947 68.7983 88.4016 69.0132 87.694 68.9994C87.267 69.0052 86.8425 68.9321 86.4421 68.7836C86.0862 68.6511 85.7614 68.4466 85.488 68.1829C85.2221 67.923 85.0143 67.6096 84.8784 67.2635C84.7328 66.8895 84.6606 66.491 84.6656 66.0897C84.6608 65.6869 84.7302 65.2867 84.8705 64.9091C84.9994 64.5624 85.2013 64.2474 85.4626 63.9855C85.7238 63.7236 86.0383 63.5208 86.3847 63.391C86.774 63.2451 87.1872 63.1732 87.6029 63.1792C87.8169 63.1778 88.0305 63.1957 88.2413 63.2326C88.4278 63.2656 88.6109 63.3153 88.7885 63.3811C89.1067 63.4992 89.3983 63.6791 89.6466 63.9105L89.3823 64.3342C89.3464 64.3947 89.2881 64.4388 89.22 64.4569C89.183 64.4639 89.145 64.4633 89.1083 64.4551C89.0715 64.4469 89.0368 64.4314 89.0063 64.4094C88.9301 64.3638 88.8489 64.3173 88.7628 64.2669C88.6687 64.2122 88.5705 64.1652 88.4689 64.1263C88.3445 64.0789 88.2159 64.0431 88.0849 64.0194C87.9154 63.9896 87.7434 63.9757 87.5713 63.9779C87.2933 63.9737 87.0173 64.0241 86.7588 64.1263C86.524 64.2205 86.3128 64.3651 86.1402 64.55C85.9632 64.7419 85.8284 64.9688 85.7443 65.216C85.6488 65.4973 85.6019 65.7928 85.6058 66.0899C85.6012 66.3996 85.6508 66.7077 85.7523 67.0004C85.8414 67.254 85.983 67.4861 86.1679 67.6813C86.3506 67.8692 86.5726 68.0142 86.8181 68.1059C87.2936 68.2729 87.8074 68.2977 88.2967 68.1771C88.4832 68.1258 88.6639 68.0555 88.8361 67.9674V66.837H88.0414C88.0157 66.8384 87.99 66.8348 87.9657 66.8263C87.9414 66.8178 87.9191 66.8046 87.8999 66.7875C87.8828 66.7708 87.8694 66.7508 87.8605 66.7286C87.8516 66.7065 87.8475 66.6827 87.8484 66.6588V66.1333H89.6704Z" fill="white"/>
<path d="M94.3209 68.1889L94.3168 68.9361H90.7659V63.2425H94.3168V63.9897H91.6952V65.7058H93.7903V66.4292H91.6952V68.1889H94.3209Z" fill="white"/>
<path d="M100.033 63.2425V68.936H99.5632C99.4996 68.9393 99.4364 68.9261 99.3795 68.8976C99.3226 68.8692 99.2741 68.8265 99.2386 68.7737L96.1112 64.7567C96.1193 64.8339 96.1251 64.9091 96.129 64.9843C96.1331 65.0595 96.1351 65.1288 96.1351 65.1921V68.936H95.3206V63.2425H95.8036C95.837 63.2422 95.8704 63.2442 95.9035 63.2485C95.9301 63.2524 95.956 63.2597 95.9807 63.2702C96.0058 63.2819 96.0286 63.298 96.048 63.3177C96.0725 63.3423 96.095 63.3688 96.1153 63.3969L99.2466 67.4179C99.2385 67.3358 99.2328 67.2556 99.2288 67.1765C99.2247 67.0973 99.2227 67.0241 99.2227 66.9548V63.2425L100.033 63.2425Z" fill="white"/>
<path d="M104.287 63.9897V65.8127H106.513V66.5599H104.287V68.9361H103.358V63.2425H106.909V63.9897H104.287Z" fill="white"/>
<path d="M113.128 66.0898C113.132 66.4877 113.062 66.883 112.923 67.2556C112.794 67.5982 112.597 67.911 112.343 68.175C112.089 68.4358 111.784 68.641 111.446 68.7777C110.698 69.068 109.869 69.068 109.12 68.7777C108.783 68.6405 108.477 68.4354 108.222 68.175C107.967 67.9114 107.769 67.5985 107.64 67.2556C107.367 66.502 107.367 65.6765 107.64 64.9229C107.769 64.5795 107.967 64.2661 108.222 64.0016C108.477 63.7403 108.783 63.5344 109.12 63.3969C109.869 63.1066 110.698 63.1066 111.446 63.3969C111.784 63.5339 112.089 63.7399 112.343 64.0016C112.596 64.2664 112.794 64.5798 112.923 64.9229C113.062 65.2959 113.132 65.6915 113.128 66.0898V66.0898ZM112.184 66.0898C112.188 65.7906 112.143 65.4927 112.051 65.208C111.972 64.9625 111.843 64.7363 111.671 64.5439C111.505 64.3611 111.301 64.2177 111.072 64.1243C110.564 63.929 110.002 63.929 109.495 64.1243C109.266 64.2181 109.061 64.3614 108.894 64.5439C108.721 64.7363 108.591 64.9624 108.51 65.208C108.33 65.7832 108.33 66.3993 108.51 66.9745C108.591 67.2198 108.721 67.4456 108.894 67.6376C109.061 67.8186 109.266 67.9602 109.495 68.0523C110.003 68.2449 110.564 68.2449 111.072 68.0523C111.3 67.9607 111.505 67.819 111.671 67.6376C111.843 67.4456 111.972 67.2197 112.051 66.9745C112.143 66.6888 112.188 66.3899 112.184 66.0898V66.0898Z" fill="white"/>
<path d="M118.474 68.936H117.647C117.576 68.9408 117.505 68.9255 117.442 68.8919C117.379 68.8584 117.327 68.8078 117.291 68.746L115.963 66.829C115.926 66.7705 115.876 66.7216 115.817 66.6865C115.742 66.6532 115.661 66.6382 115.579 66.6429H115.065V68.936H114.14V63.2425H115.817C116.143 63.2367 116.468 63.2753 116.783 63.3573C117.025 63.4196 117.252 63.5307 117.45 63.6839C117.619 63.8177 117.751 63.9925 117.835 64.1916C117.988 64.5795 118 65.0087 117.87 65.4049C117.813 65.5745 117.726 65.7326 117.614 65.8721C117.497 66.0156 117.358 66.1385 117.2 66.2353C117.027 66.3426 116.84 66.424 116.643 66.4768C116.761 66.5502 116.861 66.6489 116.936 66.7657L118.474 68.936ZM115.793 65.971C115.98 65.9744 116.167 65.9484 116.346 65.8938C116.491 65.8493 116.626 65.7759 116.742 65.678C116.845 65.5879 116.927 65.4752 116.979 65.3485C117.033 65.2131 117.06 65.0685 117.058 64.9229C117.066 64.7884 117.043 64.6539 116.989 64.5302C116.936 64.4065 116.854 64.2973 116.75 64.2113C116.475 64.0279 116.146 63.9415 115.817 63.9659H115.065V65.971H115.793Z" fill="white"/>
<path d="M122.059 68.9361H121.13V63.2425H122.059V68.9361Z" fill="white"/>
<path d="M127.329 64.0134H125.554V68.9361H124.634V64.0134H122.854V63.2425H127.329L127.329 64.0134Z" fill="white"/>
<path d="M20.7002 65.9606H5.82112V51.0815" stroke="#F0802A" stroke-width="3.5" stroke-miterlimit="10"/>
<path d="M5.7735 25.6526V10.7735H20.6526" stroke="#F0802A" stroke-width="3.5" stroke-miterlimit="10"/>
<path d="M136.344 65.9829H151.223V51.1038" stroke="#F0802A" stroke-width="3.5" stroke-miterlimit="10"/>
<path d="M151.223 25.6992V10.8201H136.344" stroke="#F0802A" stroke-width="3.5" stroke-miterlimit="10"/>
<path d="M34.4276 49.7332V53.917H16.6669V23.1782H21.6618V49.7332H34.4276Z" fill="white"/>
<path d="M66.3614 38.5479C66.3839 40.6973 66.0078 42.8323 65.252 44.8447C64.5572 46.6942 63.4932 48.3829 62.1246 49.8079C60.7508 51.2149 59.1012 52.3231 57.2792 53.0629C53.2416 54.6286 48.7647 54.6286 44.7271 53.0629C42.8956 52.3256 41.2383 51.2136 39.8616 49.7984C38.4849 48.3832 37.4191 46.6959 36.7325 44.8447C35.2533 40.7769 35.2533 36.3183 36.7325 32.2506C37.4301 30.3968 38.4978 28.7045 39.8708 27.277C41.2475 25.8655 42.9008 24.7534 44.7271 24.0105C48.7648 22.4455 53.2415 22.4455 57.2792 24.0105C59.1032 24.7519 60.7532 25.8642 62.1246 27.277C63.4919 28.7069 64.5557 30.3987 65.252 32.2506C66.0078 34.2631 66.3839 36.3982 66.3614 38.5479V38.5479ZM61.2596 38.5479C61.2824 36.9327 61.0411 35.3248 60.5451 33.7875C60.1169 32.4633 59.419 31.2421 58.4955 30.2009C57.5998 29.2149 56.4947 28.4418 55.2612 27.9385C52.5198 26.8855 49.4855 26.8855 46.7441 27.9385C45.5087 28.4434 44.4006 29.2161 43.4999 30.2009C42.5695 31.2406 41.8645 32.4618 41.4295 33.7875C40.4609 36.8942 40.4609 40.2222 41.4295 43.3289C41.8626 44.6522 42.5679 45.8702 43.4999 46.9046C44.4017 47.8832 45.5098 48.6489 46.7441 49.1462C49.4882 50.1847 52.5171 50.1847 55.2612 49.1462C56.4935 48.6505 57.5987 47.8845 58.4955 46.9046C59.4206 45.8687 60.1188 44.6508 60.5451 43.329C61.0421 41.7848 61.2835 40.1698 61.2596 38.5479V38.5479Z" fill="white"/>
<path d="M96.9928 38.7824V50.95C93.8835 53.1716 90.1409 54.3318 86.3202 54.2584C84.0155 54.2912 81.7246 53.8967 79.5636 53.095C77.6414 52.3774 75.8869 51.2731 74.4084 49.8504C72.9746 48.4468 71.8545 46.7555 71.1217 44.8876C70.3347 42.8677 69.9433 40.7154 69.9688 38.5478C69.9432 36.3736 70.3193 34.2134 71.0782 32.1758C71.7732 30.303 72.8631 28.6017 74.2738 27.1873C75.6845 25.773 77.3829 24.6787 79.2539 23.9788C81.3551 23.1906 83.5854 22.8032 85.8293 22.8366C86.9846 22.8296 88.1382 22.926 89.2763 23.1246C90.2837 23.3024 91.2731 23.5704 92.2325 23.9253C93.1121 24.2516 93.9563 24.6665 94.7522 25.1633C95.506 25.6363 96.2135 26.1794 96.8652 26.7854L95.4351 29.0696C95.3403 29.2324 95.214 29.3748 95.0636 29.4883C94.9133 29.6019 94.7418 29.6845 94.5592 29.7312C94.3599 29.7688 94.155 29.7655 93.957 29.7215C93.759 29.6775 93.5719 29.5938 93.4073 29.4753C92.9936 29.2334 92.5558 28.9772 92.094 28.7069C91.584 28.4138 91.0523 28.1604 90.5036 27.9488C89.8326 27.6936 89.1395 27.5008 88.4331 27.3728C87.5171 27.2121 86.5881 27.1371 85.6581 27.1487C84.1578 27.126 82.6675 27.3978 81.2718 27.9488C80.0054 28.4583 78.8652 29.2378 77.9307 30.233C76.9766 31.2703 76.2495 32.4955 75.796 33.83C75.2802 35.3486 75.0275 36.9441 75.0488 38.5477C75.0222 40.2214 75.2895 41.8867 75.8385 43.4679C76.3184 44.8362 77.0823 46.0875 78.0802 47.1396C79.0663 48.155 80.2656 48.9387 81.5915 49.4342C84.1589 50.335 86.9332 50.4684 89.5752 49.8182C90.5824 49.5412 91.5586 49.1622 92.4888 48.687V42.5823H88.1986C88.0591 42.5904 87.9194 42.571 87.7875 42.5252C87.6555 42.4793 87.5339 42.4079 87.4296 42.315C87.3373 42.2253 87.265 42.1172 87.2173 41.9976C87.1695 41.8781 87.1474 41.7499 87.1525 41.6213V38.7824H96.9928Z" fill="white"/>
<path d="M107.923 53.917H102.906V23.1782H107.923V53.917Z" fill="white"/>
<path d="M140.668 23.1782V53.917H138.128C137.789 53.9269 137.453 53.8574 137.146 53.7141C136.842 53.5507 136.579 53.3208 136.377 53.0416L119.492 31.3539C119.535 31.7666 119.567 32.1757 119.588 32.5811C119.61 32.9869 119.621 33.3605 119.621 33.702V53.917H115.223V23.1782H117.827C118.009 23.1764 118.191 23.1871 118.372 23.2104C118.515 23.2299 118.655 23.2694 118.787 23.3277C118.923 23.3898 119.046 23.4768 119.151 23.584C119.281 23.7177 119.403 23.8602 119.514 24.0105L136.419 45.72C136.377 45.2791 136.345 44.8451 136.323 44.4181C136.303 43.9911 136.292 43.5926 136.292 43.2226V23.1782H140.668Z" fill="white"/>
</g>
<path d="M160.84 54V23.76H165.256V36.48H179.608V23.76H184.024V54H179.608V40.224H165.256V54H160.84ZM200.085 23.76H204.021L216.069 54H211.461L208.149 45.6H195.717L192.453 54H187.893L200.085 23.76ZM196.917 42.096H206.853L204.837 36.864C204.293 35.488 203.797 34.16 203.349 32.88C202.901 31.6 202.453 30.288 202.005 28.944H201.909C201.461 30.288 200.997 31.584 200.517 32.832C200.037 34.08 199.525 35.424 198.981 36.864L196.917 42.096ZM219.949 23.76H229.789C231.357 23.76 232.733 23.984 233.917 24.432C235.133 24.88 236.141 25.504 236.941 26.304C237.741 27.104 238.349 28.064 238.765 29.184C239.181 30.272 239.389 31.472 239.389 32.784C239.389 33.936 239.213 34.976 238.861 35.904C238.509 36.832 238.045 37.648 237.469 38.352C236.893 39.024 236.221 39.616 235.453 40.128C234.717 40.608 233.965 41.008 233.197 41.328L241.165 54H236.221L229.069 42.144H224.125V54H219.949V23.76ZM224.125 38.544H227.773C228.765 38.544 229.677 38.448 230.509 38.256C231.373 38.032 232.109 37.712 232.717 37.296C233.357 36.848 233.853 36.272 234.205 35.568C234.589 34.864 234.781 34.016 234.781 33.024C234.781 31.072 234.237 29.632 233.149 28.704C232.093 27.776 230.541 27.312 228.493 27.312H224.125V38.544ZM274.131 23.76V27.408H260.787V37.2H273.075V40.8H260.787V54H256.371V23.76H274.131ZM286.194 23.76H290.13L302.178 54H297.57L294.258 45.6H281.826L278.562 54H274.002L286.194 23.76ZM283.026 42.096H292.962L290.946 36.864C290.402 35.488 289.906 34.16 289.458 32.88C289.01 31.6 288.562 30.288 288.114 28.944H288.018C287.57 30.288 287.106 31.584 286.626 32.832C286.146 34.08 285.634 35.424 285.09 36.864L283.026 42.096ZM283.458 17.52C283.458 16.112 283.906 15.104 284.802 14.496C285.698 13.856 286.802 13.536 288.114 13.536C289.458 13.536 290.562 13.84 291.426 14.448C292.322 15.056 292.77 16.08 292.77 17.52C292.77 18.224 292.642 18.832 292.386 19.344C292.13 19.856 291.778 20.272 291.33 20.592C290.914 20.912 290.418 21.152 289.842 21.312C289.298 21.44 288.722 21.504 288.114 21.504C286.866 21.504 285.778 21.184 284.85 20.544C283.922 19.872 283.458 18.864 283.458 17.52ZM285.81 17.52C285.81 18.256 286.002 18.848 286.386 19.296C286.802 19.712 287.378 19.92 288.114 19.92C288.85 19.92 289.41 19.712 289.794 19.296C290.21 18.848 290.418 18.256 290.418 17.52C290.418 16.784 290.21 16.208 289.794 15.792C289.41 15.344 288.85 15.12 288.114 15.12C287.378 15.12 286.802 15.344 286.386 15.792C286.002 16.208 285.81 16.784 285.81 17.52ZM322.46 23.76V27.504H313.004V54H308.588V27.504H299.324V23.76H322.46Z" fill="url(#paint0_linear_5_37)"/>
<path d="M349.616 23.76V27.504H340.16V54H335.744V27.504H326.48V23.76H349.616Z" fill="url(#paint1_linear_5_37)"/>
<path d="M4 78.5H8L22.35 98.45C22.8833 99.1833 23.4 99.9333 23.9 100.7C24.4 101.467 24.85 102.217 25.25 102.95H25.35C25.2833 101.783 25.2333 100.617 25.2 99.45C25.1667 98.2833 25.15 97.1167 25.15 95.95V78.5H29.65V110H25.65L11.45 90.3C10.95 89.6 10.4333 88.8167 9.9 87.95C9.36667 87.05 8.86667 86.1667 8.4 85.3H8.3C8.36667 86.7 8.41667 88.1 8.45 89.5C8.48333 90.9 8.5 92.3 8.5 93.7V110H4V78.5ZM39.1438 78.5L46.9938 92.6L54.8938 78.5H59.7438L49.0938 96.8V110H44.4938V96.8L34.0938 78.5H39.1438ZM74.8496 110V78.5H79.4496V91.75H94.3996V78.5H98.9996V110H94.3996V95.65H79.4496V110H74.8496ZM111.803 78.5V104.25C111.803 106.583 111.686 108.5 111.453 110C111.253 111.5 110.736 112.817 109.903 113.95C108.903 115.35 107.603 116.317 106.003 116.85C104.403 117.417 102.803 117.717 101.203 117.75V114C103.17 113.967 104.686 113.35 105.753 112.15C106.353 111.483 106.736 110.667 106.903 109.7C107.103 108.733 107.203 107.717 107.203 106.65V78.5H111.803ZM119.381 78.5H138.381V82.3H123.981V91.75H137.081V95.5H123.981V106.2H138.531V110H119.381V78.5ZM146.28 78.5H152.28L158.88 98.6C159.213 99.5667 159.53 100.517 159.83 101.45C160.13 102.35 160.413 103.267 160.68 104.2H160.78C161.046 103.267 161.313 102.367 161.58 101.5C161.88 100.633 162.213 99.6667 162.58 98.6L169.03 78.5H175.03L177.78 110H173.18L171.88 93.3C171.746 91.6667 171.646 90.05 171.58 88.45C171.513 86.8167 171.446 85.1667 171.38 83.5H171.28C170.813 85.1333 170.33 86.7667 169.83 88.4C169.363 90.0333 168.863 91.6667 168.33 93.3L162.78 110H158.58L153.03 93.25C152.463 91.55 151.946 89.9333 151.48 88.4C151.013 86.8333 150.546 85.2 150.08 83.5H149.98C149.913 85.1333 149.813 86.7667 149.68 88.4C149.58 90.0333 149.463 91.6667 149.33 93.3L148.13 110H143.63L146.28 78.5ZM186.807 78.5H192.807L199.407 98.6C199.74 99.5667 200.057 100.517 200.357 101.45C200.657 102.35 200.94 103.267 201.207 104.2H201.307C201.574 103.267 201.84 102.367 202.107 101.5C202.407 100.633 202.74 99.6667 203.107 98.6L209.557 78.5H215.557L218.307 110H213.707L212.407 93.3C212.274 91.6667 212.174 90.05 212.107 88.45C212.04 86.8167 211.974 85.1667 211.907 83.5H211.807C211.34 85.1333 210.857 86.7667 210.357 88.4C209.89 90.0333 209.39 91.6667 208.857 93.3L203.307 110H199.107L193.557 93.25C192.99 91.55 192.474 89.9333 192.007 88.4C191.54 86.8333 191.074 85.2 190.607 83.5H190.507C190.44 85.1333 190.34 86.7667 190.207 88.4C190.107 90.0333 189.99 91.6667 189.857 93.3L188.657 110H184.157L186.807 78.5ZM225.484 78.5H244.484V82.3H230.084V91.75H243.184V95.5H230.084V106.2H244.634V110H225.484V78.5ZM259.383 78.05C260.917 78.05 262.4 78.1833 263.833 78.45C265.267 78.6833 266.683 79.1333 268.083 79.8L266.983 83.6C265.55 82.9333 264.25 82.4667 263.083 82.2C261.95 81.9 260.783 81.75 259.583 81.75C257.683 81.75 256.183 82.1667 255.083 83C253.983 83.8333 253.433 85 253.433 86.5C253.433 87.7667 253.833 88.7833 254.633 89.55C255.467 90.3167 256.817 90.9833 258.683 91.55L261.833 92.55C264.7 93.45 266.717 94.6833 267.883 96.25C269.083 97.7833 269.683 99.5167 269.683 101.45C269.683 102.817 269.4 104.067 268.833 105.2C268.3 106.3 267.533 107.25 266.533 108.05C265.567 108.817 264.417 109.417 263.083 109.85C261.75 110.25 260.283 110.45 258.683 110.45C257.083 110.45 255.45 110.3 253.783 110C252.15 109.733 250.517 109.217 248.883 108.45L249.983 104.7C251.417 105.4 252.817 105.917 254.183 106.25C255.55 106.583 256.983 106.75 258.483 106.75C260.283 106.75 261.817 106.333 263.083 105.5C264.35 104.667 264.983 103.433 264.983 101.8C264.983 101.2 264.883 100.65 264.683 100.15C264.517 99.6167 264.2 99.1167 263.733 98.65C263.3 98.1833 262.7 97.75 261.933 97.35C261.167 96.95 260.2 96.5667 259.033 96.2L255.883 95.2C253.583 94.4667 251.817 93.4667 250.583 92.2C249.35 90.9333 248.733 89.2167 248.733 87.05C248.733 84.2833 249.633 82.1 251.433 80.5C253.267 78.8667 255.917 78.05 259.383 78.05ZM280.377 78.5V110H275.777V78.5H280.377ZM298.576 78.5C300.81 78.5 302.876 78.8167 304.776 79.45C306.676 80.0833 308.31 81.0333 309.676 82.3C311.076 83.5333 312.16 85.1 312.926 87C313.726 88.8667 314.126 91.05 314.126 93.55C314.126 96.5833 313.66 99.15 312.726 101.25C311.793 103.35 310.526 105.05 308.926 106.35C307.36 107.65 305.526 108.583 303.426 109.15C301.36 109.717 299.16 110 296.826 110H288.326V78.5H298.576ZM292.926 106.2H296.376C297.976 106.2 299.543 106.033 301.076 105.7C302.61 105.333 303.96 104.683 305.126 103.75C306.326 102.783 307.293 101.483 308.026 99.85C308.76 98.2167 309.126 96.1167 309.126 93.55C309.126 91.75 308.86 90.15 308.326 88.75C307.793 87.35 307.026 86.1833 306.026 85.25C305.026 84.2833 303.81 83.55 302.376 83.05C300.976 82.55 299.41 82.3 297.676 82.3H292.926V106.2ZM320.406 78.5H339.406V82.3H325.006V91.75H338.106V95.5H325.006V106.2H339.556V110H320.406V78.5ZM345.305 74.5H350.005L349.405 99.55H345.805L345.305 74.5ZM344.605 107.3C344.605 106.433 344.905 105.7 345.505 105.1C346.105 104.5 346.822 104.2 347.655 104.2C348.488 104.2 349.188 104.5 349.755 105.1C350.355 105.7 350.655 106.433 350.655 107.3C350.655 108.267 350.355 109.033 349.755 109.6C349.188 110.167 348.488 110.45 347.655 110.45C346.822 110.45 346.105 110.167 345.505 109.6C344.905 109.033 344.605 108.267 344.605 107.3Z" fill="url(#paint2_linear_5_37)"/>
<defs>
<linearGradient id="paint0_linear_5_37" x1="105.5" y1="12" x2="357.74" y2="34.9611" gradientUnits="userSpaceOnUse">
<stop stop-color="#14CAD6"/>
<stop offset="1" stop-color="#D714DB"/>
</linearGradient>
<linearGradient id="paint1_linear_5_37" x1="229.5" y1="5.49997" x2="320.925" y2="-29.934" gradientUnits="userSpaceOnUse">
<stop stop-color="#14CAD6"/>
<stop offset="1" stop-color="#D714DB"/>
</linearGradient>
<linearGradient id="paint2_linear_5_37" x1="104.5" y1="8.49996" x2="353.784" y2="17.3359" gradientUnits="userSpaceOnUse">
<stop stop-color="#14CAD6"/>
<stop offset="1" stop-color="#D714DB"/>
</linearGradient>
<clipPath id="clip0_5_37">
<rect width="148.997" height="60" fill="white" transform="translate(4 9)"/>
</clipPath>
</defs>
</svg>
