<svg width="364" height="158" viewBox="0 0 364 158" fill="none" xmlns="http://www.w3.org/2000/svg">
<g clip-path="url(#clip0_5_37)">
<path d="M33.1635 89.1612V89.9361H29.8738V84.2425H30.7991V89.1612H33.1635Z" fill="white"/>
<path d="M34.8875 89.9361H33.9582V84.2425H34.8875V89.9361Z" fill="white"/>
<path d="M40.9522 84.2425V89.936H40.4821C40.4186 89.9393 40.3553 89.9261 40.2984 89.8976C40.2416 89.8692 40.193 89.8265 40.1575 89.7737L37.0301 85.7567C37.0381 85.8339 37.044 85.9091 37.048 85.9843C37.0519 86.0595 37.0539 86.1288 37.0539 86.1921V89.936H36.2394V84.2425H36.7224C36.7558 84.2422 36.7892 84.2442 36.8224 84.2485C36.8489 84.2524 36.8748 84.2597 36.8996 84.2702C36.9246 84.2819 36.9474 84.298 36.9668 84.3177C36.9914 84.3423 37.0139 84.3688 37.0342 84.3969L40.1655 88.418C40.1576 88.3358 40.1516 88.2557 40.1477 88.1765C40.1437 88.0973 40.1417 88.0241 40.1417 87.9548V84.2425L40.9522 84.2425Z" fill="white"/>
<path d="M44.3804 87.9359C44.384 88.2265 44.3447 88.5159 44.2637 88.795C44.1943 89.0334 44.0756 89.2546 43.9153 89.4442C43.7585 89.6234 43.5624 89.764 43.3423 89.8549C43.0903 89.9555 42.8208 90.0046 42.5496 89.9994C42.4132 89.9993 42.2771 89.9907 42.1418 89.9737C42.0007 89.9552 41.8609 89.9281 41.7232 89.8925L41.7707 89.3393C41.776 89.2913 41.7977 89.2465 41.832 89.2126C41.8721 89.1784 41.924 89.1613 41.9765 89.1651C42.0386 89.1673 42.1001 89.1773 42.1596 89.1948C42.4002 89.2454 42.6499 89.2311 42.8831 89.1532C43.0063 89.1074 43.1154 89.0303 43.1998 88.9295C43.2924 88.8151 43.3587 88.6816 43.3937 88.5386C43.4409 88.349 43.4628 88.154 43.4591 87.9587V84.2424H44.3804V87.9359Z" fill="white"/>
<path d="M49.2318 89.1889L49.2279 89.9361H45.6769V84.2425H49.2279V84.9897H46.6062V86.7058H48.7014V87.4292H46.6062V89.1889H49.2318Z" fill="white"/>
<path d="M51.1607 84.9897V86.8127H53.3865V87.5599H51.1607V89.9361H50.2314V84.2425H53.7824V84.9897H51.1607Z" fill="white"/>
<path d="M60.0015 87.0898C60.0057 87.4877 59.9363 87.883 59.7966 88.2556C59.6676 88.5982 59.4703 88.911 59.2167 89.175C58.9627 89.4358 58.6574 89.641 58.32 89.7777C57.572 90.068 56.7424 90.068 55.9943 89.7777C55.6566 89.6405 55.3507 89.4354 55.0957 89.175C54.8411 88.9114 54.643 88.5985 54.5137 88.2556C54.2406 87.502 54.2406 86.6765 54.5137 85.9229C54.6432 85.5795 54.8412 85.2661 55.0957 85.0016C55.3504 84.7403 55.6563 84.5344 55.9943 84.3969C56.7424 84.1066 57.572 84.1066 58.32 84.3969C58.6577 84.5339 58.963 84.7399 59.2167 85.0016C59.4702 85.2664 59.6674 85.5798 59.7966 85.9229C59.9363 86.2959 60.0057 86.6915 60.0015 87.0898V87.0898ZM59.0573 87.0898C59.0615 86.7906 59.0167 86.4927 58.9247 86.208C58.8458 85.9625 58.7164 85.7363 58.5447 85.5439C58.3789 85.3611 58.1743 85.2177 57.9459 85.1243C57.4382 84.929 56.8761 84.929 56.3684 85.1243C56.1396 85.2181 55.9345 85.3614 55.7676 85.5439C55.5951 85.7363 55.4643 85.9624 55.3837 86.208C55.2042 86.7832 55.2042 87.3994 55.3837 87.9745C55.4643 88.2198 55.5951 88.4456 55.7676 88.6376C55.9347 88.8186 56.1399 88.9602 56.3684 89.0523C56.8766 89.2449 57.4377 89.2449 57.9459 89.0523C58.1741 88.9607 58.3787 88.819 58.5447 88.6376C58.7163 88.4456 58.8458 88.2197 58.9247 87.9745C59.0169 87.6888 59.0617 87.3899 59.0573 87.0898V87.0898Z" fill="white"/>
<path d="M65.3467 89.936H64.5203C64.4491 89.9408 64.378 89.9255 64.3151 89.8919C64.2521 89.8584 64.1998 89.8078 64.1641 89.746L62.8359 87.829C62.7992 87.7705 62.749 87.7216 62.6895 87.6865C62.6149 87.6532 62.5335 87.6382 62.4519 87.6429H61.9383V89.936H61.0129V84.2425H62.6894C63.0154 84.2367 63.3407 84.2753 63.6563 84.3573C63.8983 84.4196 64.125 84.5307 64.3224 84.6839C64.4917 84.8177 64.6242 84.9925 64.7074 85.1916C64.8604 85.5795 64.873 86.0087 64.743 86.4049C64.6856 86.5745 64.5989 86.7326 64.4867 86.8721C64.3703 87.0156 64.2304 87.1385 64.073 87.2353C63.9001 87.3426 63.7124 87.424 63.5158 87.4768C63.6337 87.5502 63.7337 87.6489 63.8087 87.7657L65.3467 89.936ZM62.6657 86.971C62.853 86.9744 63.0397 86.9484 63.2189 86.8938C63.3641 86.8493 63.4988 86.7759 63.6148 86.678C63.7183 86.5879 63.7996 86.4752 63.8523 86.3485C63.9059 86.2131 63.9325 86.0685 63.9305 85.9229C63.939 85.7884 63.9155 85.6539 63.862 85.5302C63.8085 85.4065 63.7265 85.2973 63.6227 85.2113C63.3476 85.0279 63.0192 84.9415 62.6895 84.9659H61.9383V86.971H62.6657Z" fill="white"/>
<path d="M69.5894 89.1889L69.5855 89.9361H66.0345V84.2425H69.5855V84.9897H66.9638V86.7058H69.059V87.4292H66.9638V89.1889H69.5894Z" fill="white"/>
<path d="M75.3018 84.2425V89.936H74.8317C74.7682 89.9393 74.7049 89.9261 74.6481 89.8976C74.5912 89.8692 74.5426 89.8265 74.5071 89.7737L71.3798 85.7567C71.3877 85.8339 71.3936 85.9091 71.3976 85.9843C71.4015 86.0595 71.4035 86.1288 71.4035 86.1921V89.936H70.5891V84.2425H71.072C71.1054 84.2422 71.1388 84.2442 71.172 84.2485C71.1985 84.2524 71.2245 84.2597 71.2492 84.2702C71.2742 84.2819 71.297 84.298 71.3165 84.3177C71.341 84.3423 71.3635 84.3688 71.3838 84.3969L74.5151 88.4179C74.507 88.3358 74.5012 88.2556 74.4973 88.1765C74.4932 88.0973 74.4912 88.0241 74.4912 87.9548V84.2425L75.3018 84.2425Z" fill="white"/>
<path d="M77.587 89.9361H76.6577V84.2425H77.587V89.9361Z" fill="white"/>
<path d="M83.6532 84.2425V89.936H83.1826C83.1191 89.9393 83.0558 89.9261 82.9989 89.8976C82.942 89.8692 82.8935 89.8265 82.858 89.7737L79.7306 85.7567C79.7387 85.8339 79.7445 85.9091 79.7484 85.9843C79.7525 86.0595 79.7545 86.1288 79.7545 86.1921V89.936H78.94V84.2425H79.423C79.4564 84.2422 79.4898 84.2442 79.5229 84.2485C79.5495 84.2524 79.5754 84.2597 79.6001 84.2702C79.6252 84.2819 79.648 84.298 79.6674 84.3177C79.6919 84.3423 79.7144 84.3688 79.7347 84.3969L82.866 88.4179C82.8579 88.3358 82.8522 88.2556 82.8482 88.1765C82.8442 88.0973 82.8421 88.0241 82.8421 87.9548V84.2425L83.6532 84.2425Z" fill="white"/>
<path d="M89.6704 87.1333V89.3868C89.0947 89.7983 88.4016 90.0132 87.694 89.9994C87.267 90.0052 86.8425 89.9321 86.4421 89.7836C86.0862 89.6511 85.7614 89.4466 85.488 89.1829C85.2221 88.923 85.0143 88.6096 84.8784 88.2635C84.7328 87.8895 84.6606 87.491 84.6656 87.0897C84.6608 86.6869 84.7302 86.2867 84.8705 85.9091C84.9994 85.5624 85.2013 85.2474 85.4626 84.9855C85.7238 84.7236 86.0383 84.5208 86.3847 84.391C86.774 84.2451 87.1872 84.1732 87.6029 84.1792C87.8169 84.1778 88.0305 84.1957 88.2413 84.2326C88.4278 84.2656 88.6109 84.3153 88.7885 84.3811C89.1067 84.4992 89.3983 84.6791 89.6466 84.9105L89.3823 85.3342C89.3464 85.3947 89.2881 85.4388 89.22 85.4569C89.183 85.4639 89.145 85.4633 89.1083 85.4551C89.0715 85.4469 89.0368 85.4314 89.0063 85.4094C88.9301 85.3638 88.8489 85.3173 88.7628 85.2669C88.6687 85.2122 88.5705 85.1652 88.4689 85.1263C88.3445 85.0789 88.2159 85.0431 88.0849 85.0194C87.9154 84.9896 87.7434 84.9757 87.5713 84.9779C87.2933 84.9737 87.0173 85.0241 86.7588 85.1263C86.524 85.2205 86.3128 85.3651 86.1402 85.55C85.9632 85.7419 85.8284 85.9688 85.7443 86.216C85.6488 86.4973 85.6019 86.7928 85.6058 87.0899C85.6012 87.3996 85.6508 87.7077 85.7523 88.0004C85.8414 88.254 85.983 88.4861 86.1679 88.6813C86.3506 88.8692 86.5726 89.0142 86.8181 89.1059C87.2936 89.2729 87.8074 89.2977 88.2967 89.1771C88.4832 89.1258 88.6639 89.0555 88.8361 88.9674V87.837H88.0414C88.0157 87.8384 87.99 87.8348 87.9657 87.8263C87.9414 87.8178 87.9191 87.8046 87.8999 87.7875C87.8828 87.7708 87.8694 87.7508 87.8605 87.7286C87.8516 87.7065 87.8475 87.6827 87.8484 87.6588V87.1333H89.6704Z" fill="white"/>
<path d="M94.3209 89.1889L94.3168 89.9361H90.7659V84.2425H94.3168V84.9897H91.6952V86.7058H93.7903V87.4292H91.6952V89.1889H94.3209Z" fill="white"/>
<path d="M100.033 84.2425V89.936H99.5632C99.4996 89.9393 99.4364 89.9261 99.3795 89.8976C99.3226 89.8692 99.2741 89.8265 99.2386 89.7737L96.1112 85.7567C96.1193 85.8339 96.1251 85.9091 96.129 85.9843C96.1331 86.0595 96.1351 86.1288 96.1351 86.1921V89.936H95.3206V84.2425H95.8036C95.837 84.2422 95.8704 84.2442 95.9035 84.2485C95.9301 84.2524 95.956 84.2597 95.9807 84.2702C96.0058 84.2819 96.0286 84.298 96.048 84.3177C96.0725 84.3423 96.095 84.3688 96.1153 84.3969L99.2466 88.4179C99.2385 88.3358 99.2328 88.2556 99.2288 88.1765C99.2247 88.0973 99.2227 88.0241 99.2227 87.9548V84.2425L100.033 84.2425Z" fill="white"/>
<path d="M104.287 84.9897V86.8127H106.513V87.5599H104.287V89.9361H103.358V84.2425H106.909V84.9897H104.287Z" fill="white"/>
<path d="M113.128 87.0898C113.132 87.4877 113.062 87.883 112.923 88.2556C112.794 88.5982 112.597 88.911 112.343 89.175C112.089 89.4358 111.784 89.641 111.446 89.7777C110.698 90.068 109.869 90.068 109.12 89.7777C108.783 89.6405 108.477 89.4354 108.222 89.175C107.967 88.9114 107.769 88.5985 107.64 88.2556C107.367 87.502 107.367 86.6765 107.64 85.9229C107.769 85.5795 107.967 85.2661 108.222 85.0016C108.477 84.7403 108.783 84.5344 109.12 84.3969C109.869 84.1066 110.698 84.1066 111.446 84.3969C111.784 84.5339 112.089 84.7399 112.343 85.0016C112.596 85.2664 112.794 85.5798 112.923 85.9229C113.062 86.2959 113.132 86.6915 113.128 87.0898V87.0898ZM112.184 87.0898C112.188 86.7906 112.143 86.4927 112.051 86.208C111.972 85.9625 111.843 85.7363 111.671 85.5439C111.505 85.3611 111.301 85.2177 111.072 85.1243C110.564 84.929 110.002 84.929 109.495 85.1243C109.266 85.2181 109.061 85.3614 108.894 85.5439C108.721 85.7363 108.591 85.9624 108.51 86.208C108.33 86.7832 108.33 87.3993 108.51 87.9745C108.591 88.2198 108.721 88.4456 108.894 88.6376C109.061 88.8186 109.266 88.9602 109.495 89.0523C110.003 89.2449 110.564 89.2449 111.072 89.0523C111.3 88.9607 111.505 88.819 111.671 88.6376C111.843 88.4456 111.972 88.2197 112.051 87.9745C112.143 87.6888 112.188 87.3899 112.184 87.0898V87.0898Z" fill="white"/>
<path d="M118.474 89.936H117.647C117.576 89.9408 117.505 89.9255 117.442 89.8919C117.379 89.8584 117.327 89.8078 117.291 89.746L115.963 87.829C115.926 87.7705 115.876 87.7216 115.817 87.6865C115.742 87.6532 115.661 87.6382 115.579 87.6429H115.065V89.936H114.14V84.2425H115.817C116.143 84.2367 116.468 84.2753 116.783 84.3573C117.025 84.4196 117.252 84.5307 117.45 84.6839C117.619 84.8177 117.751 84.9925 117.835 85.1916C117.988 85.5795 118 86.0087 117.87 86.4049C117.813 86.5745 117.726 86.7326 117.614 86.8721C117.497 87.0156 117.358 87.1385 117.2 87.2353C117.027 87.3426 116.84 87.424 116.643 87.4768C116.761 87.5502 116.861 87.6489 116.936 87.7657L118.474 89.936ZM115.793 86.971C115.98 86.9744 116.167 86.9484 116.346 86.8938C116.491 86.8493 116.626 86.7759 116.742 86.678C116.845 86.5879 116.927 86.4752 116.979 86.3485C117.033 86.2131 117.06 86.0685 117.058 85.9229C117.066 85.7884 117.043 85.6539 116.989 85.5302C116.936 85.4065 116.854 85.2973 116.75 85.2113C116.475 85.0279 116.146 84.9415 115.817 84.9659H115.065V86.971H115.793Z" fill="white"/>
<path d="M122.059 89.9361H121.13V84.2425H122.059V89.9361Z" fill="white"/>
<path d="M127.329 85.0134H125.554V89.9361H124.634V85.0134H122.854V84.2425H127.329L127.329 85.0134Z" fill="white"/>
<path d="M20.7002 86.9606H5.82112V72.0815" stroke="#F0802A" stroke-width="3.5" stroke-miterlimit="10"/>
<path d="M5.7735 46.6526V31.7735H20.6526" stroke="#F0802A" stroke-width="3.5" stroke-miterlimit="10"/>
<path d="M136.344 86.9829H151.223V72.1038" stroke="#F0802A" stroke-width="3.5" stroke-miterlimit="10"/>
<path d="M151.223 46.6992V31.8201H136.344" stroke="#F0802A" stroke-width="3.5" stroke-miterlimit="10"/>
<path d="M34.4276 70.7332V74.917H16.6669V44.1782H21.6618V70.7332H34.4276Z" fill="white"/>
<path d="M66.3614 59.5479C66.3839 61.6973 66.0078 63.8323 65.252 65.8447C64.5572 67.6942 63.4932 69.3829 62.1246 70.8079C60.7508 72.2149 59.1012 73.3231 57.2792 74.0629C53.2416 75.6286 48.7647 75.6286 44.7271 74.0629C42.8956 73.3256 41.2383 72.2136 39.8616 70.7984C38.4849 69.3832 37.4191 67.6959 36.7325 65.8447C35.2533 61.7769 35.2533 57.3183 36.7325 53.2506C37.4301 51.3968 38.4978 49.7045 39.8708 48.277C41.2475 46.8655 42.9008 45.7534 44.7271 45.0105C48.7648 43.4455 53.2415 43.4455 57.2792 45.0105C59.1032 45.7519 60.7532 46.8642 62.1246 48.277C63.4919 49.7069 64.5557 51.3987 65.252 53.2506C66.0078 55.2631 66.3839 57.3982 66.3614 59.5479V59.5479ZM61.2596 59.5479C61.2824 57.9327 61.0411 56.3248 60.5451 54.7875C60.1169 53.4633 59.419 52.2421 58.4955 51.2009C57.5998 50.2149 56.4947 49.4418 55.2612 48.9385C52.5198 47.8855 49.4855 47.8855 46.7441 48.9385C45.5087 49.4434 44.4006 50.2161 43.4999 51.2009C42.5695 52.2406 41.8645 53.4618 41.4295 54.7875C40.4609 57.8942 40.4609 61.2222 41.4295 64.3289C41.8626 65.6522 42.5679 66.8702 43.4999 67.9046C44.4017 68.8832 45.5098 69.6489 46.7441 70.1462C49.4882 71.1847 52.5171 71.1847 55.2612 70.1462C56.4935 69.6505 57.5987 68.8845 58.4955 67.9046C59.4206 66.8687 60.1188 65.6508 60.5451 64.329C61.0421 62.7848 61.2835 61.1698 61.2596 59.5479V59.5479Z" fill="white"/>
<path d="M96.9928 59.7824V71.95C93.8835 74.1716 90.1409 75.3318 86.3202 75.2584C84.0155 75.2912 81.7246 74.8967 79.5636 74.095C77.6414 73.3774 75.8869 72.2731 74.4084 70.8504C72.9746 69.4468 71.8545 67.7555 71.1217 65.8876C70.3347 63.8677 69.9433 61.7154 69.9688 59.5478C69.9432 57.3736 70.3193 55.2134 71.0782 53.1758C71.7732 51.303 72.8631 49.6017 74.2738 48.1873C75.6845 46.773 77.3829 45.6787 79.2539 44.9788C81.3551 44.1906 83.5854 43.8032 85.8293 43.8366C86.9846 43.8296 88.1382 43.926 89.2763 44.1246C90.2837 44.3024 91.2731 44.5704 92.2325 44.9253C93.1121 45.2516 93.9563 45.6665 94.7522 46.1633C95.506 46.6363 96.2135 47.1794 96.8652 47.7854L95.4351 50.0696C95.3403 50.2324 95.214 50.3748 95.0636 50.4883C94.9133 50.6019 94.7418 50.6845 94.5592 50.7312C94.3599 50.7688 94.155 50.7655 93.957 50.7215C93.759 50.6775 93.5719 50.5938 93.4073 50.4753C92.9936 50.2334 92.5558 49.9772 92.094 49.7069C91.584 49.4138 91.0523 49.1604 90.5036 48.9488C89.8326 48.6936 89.1395 48.5008 88.4331 48.3728C87.5171 48.2121 86.5881 48.1371 85.6581 48.1487C84.1578 48.126 82.6675 48.3978 81.2718 48.9488C80.0054 49.4583 78.8652 50.2378 77.9307 51.233C76.9766 52.2703 76.2495 53.4955 75.796 54.83C75.2802 56.3486 75.0275 57.9441 75.0488 59.5477C75.0222 61.2214 75.2895 62.8867 75.8385 64.4679C76.3184 65.8362 77.0823 67.0875 78.0802 68.1396C79.0663 69.155 80.2656 69.9387 81.5915 70.4342C84.1589 71.335 86.9332 71.4684 89.5752 70.8182C90.5824 70.5412 91.5586 70.1622 92.4888 69.687V63.5823H88.1986C88.0591 63.5904 87.9194 63.571 87.7875 63.5252C87.6555 63.4793 87.5339 63.4079 87.4296 63.315C87.3373 63.2253 87.265 63.1172 87.2173 62.9976C87.1695 62.8781 87.1474 62.7499 87.1525 62.6213V59.7824H96.9928Z" fill="white"/>
<path d="M107.923 74.917H102.906V44.1782H107.923V74.917Z" fill="white"/>
<path d="M140.668 44.1782V74.917H138.128C137.789 74.9269 137.453 74.8574 137.146 74.7141C136.842 74.5507 136.579 74.3208 136.377 74.0416L119.492 52.3539C119.535 52.7666 119.567 53.1757 119.588 53.5811C119.61 53.9869 119.621 54.3605 119.621 54.702V74.917H115.223V44.1782H117.827C118.009 44.1764 118.191 44.1871 118.372 44.2104C118.515 44.2299 118.655 44.2694 118.787 44.3277C118.923 44.3898 119.046 44.4768 119.151 44.584C119.281 44.7177 119.403 44.8602 119.514 45.0105L136.419 66.72C136.377 66.2791 136.345 65.8451 136.323 65.4181C136.303 64.9911 136.292 64.5926 136.292 64.2226V44.1782H140.668Z" fill="white"/>
</g>
<path d="M160.84 75V44.76H165.256V57.48H179.608V44.76H184.024V75H179.608V61.224H165.256V75H160.84ZM200.085 44.76H204.021L216.069 75H211.461L208.149 66.6H195.717L192.453 75H187.893L200.085 44.76ZM196.917 63.096H206.853L204.837 57.864C204.293 56.488 203.797 55.16 203.349 53.88C202.901 52.6 202.453 51.288 202.005 49.944H201.909C201.461 51.288 200.997 52.584 200.517 53.832C200.037 55.08 199.525 56.424 198.981 57.864L196.917 63.096ZM219.949 44.76H229.789C231.357 44.76 232.733 44.984 233.917 45.432C235.133 45.88 236.141 46.504 236.941 47.304C237.741 48.104 238.349 49.064 238.765 50.184C239.181 51.272 239.389 52.472 239.389 53.784C239.389 54.936 239.213 55.976 238.861 56.904C238.509 57.832 238.045 58.648 237.469 59.352C236.893 60.024 236.221 60.616 235.453 61.128C234.717 61.608 233.965 62.008 233.197 62.328L241.165 75H236.221L229.069 63.144H224.125V75H219.949V44.76ZM224.125 59.544H227.773C228.765 59.544 229.677 59.448 230.509 59.256C231.373 59.032 232.109 58.712 232.717 58.296C233.357 57.848 233.853 57.272 234.205 56.568C234.589 55.864 234.781 55.016 234.781 54.024C234.781 52.072 234.237 50.632 233.149 49.704C232.093 48.776 230.541 48.312 228.493 48.312H224.125V59.544ZM274.131 44.76V48.408H260.787V58.2H273.075V61.8H260.787V75H256.371V44.76H274.131ZM286.194 44.76H290.13L302.178 75H297.57L294.258 66.6H281.826L278.562 75H274.002L286.194 44.76ZM283.026 63.096H292.962L290.946 57.864C290.402 56.488 289.906 55.16 289.458 53.88C289.01 52.6 288.562 51.288 288.114 49.944H288.018C287.57 51.288 287.106 52.584 286.626 53.832C286.146 55.08 285.634 56.424 285.09 57.864L283.026 63.096ZM283.458 38.52C283.458 37.112 283.906 36.104 284.802 35.496C285.698 34.856 286.802 34.536 288.114 34.536C289.458 34.536 290.562 34.84 291.426 35.448C292.322 36.056 292.77 37.08 292.77 38.52C292.77 39.224 292.642 39.832 292.386 40.344C292.13 40.856 291.778 41.272 291.33 41.592C290.914 41.912 290.418 42.152 289.842 42.312C289.298 42.44 288.722 42.504 288.114 42.504C286.866 42.504 285.778 42.184 284.85 41.544C283.922 40.872 283.458 39.864 283.458 38.52ZM285.81 38.52C285.81 39.256 286.002 39.848 286.386 40.296C286.802 40.712 287.378 40.92 288.114 40.92C288.85 40.92 289.41 40.712 289.794 40.296C290.21 39.848 290.418 39.256 290.418 38.52C290.418 37.784 290.21 37.208 289.794 36.792C289.41 36.344 288.85 36.12 288.114 36.12C287.378 36.12 286.802 36.344 286.386 36.792C286.002 37.208 285.81 37.784 285.81 38.52ZM322.46 44.76V48.504H313.004V75H308.588V48.504H299.324V44.76H322.46Z" fill="url(#paint0_linear_5_37)"/>
<path d="M349.616 44.76V48.504H340.16V75H335.744V48.504H326.48V44.76H349.616Z" fill="url(#paint1_linear_5_37)"/>
<path d="M4 99.5H8L22.35 119.45C22.8833 120.183 23.4 120.933 23.9 121.7C24.4 122.467 24.85 123.217 25.25 123.95H25.35C25.2833 122.783 25.2333 121.617 25.2 120.45C25.1667 119.283 25.15 118.117 25.15 116.95V99.5H29.65V131H25.65L11.45 111.3C10.95 110.6 10.4333 109.817 9.9 108.95C9.36667 108.05 8.86667 107.167 8.4 106.3H8.3C8.36667 107.7 8.41667 109.1 8.45 110.5C8.48333 111.9 8.5 113.3 8.5 114.7V131H4V99.5ZM39.1438 99.5L46.9938 113.6L54.8938 99.5H59.7438L49.0938 117.8V131H44.4938V117.8L34.0938 99.5H39.1438ZM74.8496 131V99.5H79.4496V112.75H94.3996V99.5H98.9996V131H94.3996V116.65H79.4496V131H74.8496ZM111.803 99.5V125.25C111.803 127.583 111.686 129.5 111.453 131C111.253 132.5 110.736 133.817 109.903 134.95C108.903 136.35 107.603 137.317 106.003 137.85C104.403 138.417 102.803 138.717 101.203 138.75V135C103.17 134.967 104.686 134.35 105.753 133.15C106.353 132.483 106.736 131.667 106.903 130.7C107.103 129.733 107.203 128.717 107.203 127.65V99.5H111.803ZM119.381 99.5H138.381V103.3H123.981V112.75H137.081V116.5H123.981V127.2H138.531V131H119.381V99.5ZM146.28 99.5H152.28L158.88 119.6C159.213 120.567 159.53 121.517 159.83 122.45C160.13 123.35 160.413 124.267 160.68 125.2H160.78C161.046 124.267 161.313 123.367 161.58 122.5C161.88 121.633 162.213 120.667 162.58 119.6L169.03 99.5H175.03L177.78 131H173.18L171.88 114.3C171.746 112.667 171.646 111.05 171.58 109.45C171.513 107.817 171.446 106.167 171.38 104.5H171.28C170.813 106.133 170.33 107.767 169.83 109.4C169.363 111.033 168.863 112.667 168.33 114.3L162.78 131H158.58L153.03 114.25C152.463 112.55 151.946 110.933 151.48 109.4C151.013 107.833 150.546 106.2 150.08 104.5H149.98C149.913 106.133 149.813 107.767 149.68 109.4C149.58 111.033 149.463 112.667 149.33 114.3L148.13 131H143.63L146.28 99.5ZM186.807 99.5H192.807L199.407 119.6C199.74 120.567 200.057 121.517 200.357 122.45C200.657 123.35 200.94 124.267 201.207 125.2H201.307C201.574 124.267 201.84 123.367 202.107 122.5C202.407 121.633 202.74 120.667 203.107 119.6L209.557 99.5H215.557L218.307 131H213.707L212.407 114.3C212.274 112.667 212.174 111.05 212.107 109.45C212.04 107.817 211.974 106.167 211.907 104.5H211.807C211.34 106.133 210.857 107.767 210.357 109.4C209.89 111.033 209.39 112.667 208.857 114.3L203.307 131H199.107L193.557 114.25C192.99 112.55 192.474 110.933 192.007 109.4C191.54 107.833 191.074 106.2 190.607 104.5H190.507C190.44 106.133 190.34 107.767 190.207 109.4C190.107 111.033 189.99 112.667 189.857 114.3L188.657 131H184.157L186.807 99.5ZM225.484 99.5H244.484V103.3H230.084V112.75H243.184V116.5H230.084V127.2H244.634V131H225.484V99.5ZM259.383 99.05C260.917 99.05 262.4 99.1833 263.833 99.45C265.267 99.6833 266.683 100.133 268.083 100.8L266.983 104.6C265.55 103.933 264.25 103.467 263.083 103.2C261.95 102.9 260.783 102.75 259.583 102.75C257.683 102.75 256.183 103.167 255.083 104C253.983 104.833 253.433 106 253.433 107.5C253.433 108.767 253.833 109.783 254.633 110.55C255.467 111.317 256.817 111.983 258.683 112.55L261.833 113.55C264.7 114.45 266.717 115.683 267.883 117.25C269.083 118.783 269.683 120.517 269.683 122.45C269.683 123.817 269.4 125.067 268.833 126.2C268.3 127.3 267.533 128.25 266.533 129.05C265.567 129.817 264.417 130.417 263.083 130.85C261.75 131.25 260.283 131.45 258.683 131.45C257.083 131.45 255.45 131.3 253.783 131C252.15 130.733 250.517 130.217 248.883 129.45L249.983 125.7C251.417 126.4 252.817 126.917 254.183 127.25C255.55 127.583 256.983 127.75 258.483 127.75C260.283 127.75 261.817 127.333 263.083 126.5C264.35 125.667 264.983 124.433 264.983 122.8C264.983 122.2 264.883 121.65 264.683 121.15C264.517 120.617 264.2 120.117 263.733 119.65C263.3 119.183 262.7 118.75 261.933 118.35C261.167 117.95 260.2 117.567 259.033 117.2L255.883 116.2C253.583 115.467 251.817 114.467 250.583 113.2C249.35 111.933 248.733 110.217 248.733 108.05C248.733 105.283 249.633 103.1 251.433 101.5C253.267 99.8667 255.917 99.05 259.383 99.05ZM280.377 99.5V131H275.777V99.5H280.377ZM298.576 99.5C300.81 99.5 302.876 99.8167 304.776 100.45C306.676 101.083 308.31 102.033 309.676 103.3C311.076 104.533 312.16 106.1 312.926 108C313.726 109.867 314.126 112.05 314.126 114.55C314.126 117.583 313.66 120.15 312.726 122.25C311.793 124.35 310.526 126.05 308.926 127.35C307.36 128.65 305.526 129.583 303.426 130.15C301.36 130.717 299.16 131 296.826 131H288.326V99.5H298.576ZM292.926 127.2H296.376C297.976 127.2 299.543 127.033 301.076 126.7C302.61 126.333 303.96 125.683 305.126 124.75C306.326 123.783 307.293 122.483 308.026 120.85C308.76 119.217 309.126 117.117 309.126 114.55C309.126 112.75 308.86 111.15 308.326 109.75C307.793 108.35 307.026 107.183 306.026 106.25C305.026 105.283 303.81 104.55 302.376 104.05C300.976 103.55 299.41 103.3 297.676 103.3H292.926V127.2ZM320.406 99.5H339.406V103.3H325.006V112.75H338.106V116.5H325.006V127.2H339.556V131H320.406V99.5ZM345.305 95.5H350.005L349.405 120.55H345.805L345.305 95.5ZM344.605 128.3C344.605 127.433 344.905 126.7 345.505 126.1C346.105 125.5 346.822 125.2 347.655 125.2C348.488 125.2 349.188 125.5 349.755 126.1C350.355 126.7 350.655 127.433 350.655 128.3C350.655 129.267 350.355 130.033 349.755 130.6C349.188 131.167 348.488 131.45 347.655 131.45C346.822 131.45 346.105 131.167 345.505 130.6C344.905 130.033 344.605 129.267 344.605 128.3Z" fill="url(#paint2_linear_5_37)"/>
<path d="M9.76 3.36L12.084 10.724C12.364 11.62 12.6627 12.628 12.98 13.748C13.2973 14.8493 13.5773 15.96 13.82 17.08H13.904C14.1467 15.96 14.4173 14.8493 14.716 13.748C15.0333 12.6467 15.3413 11.6293 15.64 10.696L17.936 3.36H22.304L16.228 21H11.496L5.252 3.36H9.76ZM34.9628 15.484H26.2828V15.596C26.2828 16.5293 26.6468 17.2107 27.3748 17.64C28.1028 18.0693 29.0175 18.284 30.1188 18.284C30.8842 18.284 31.5562 18.2093 32.1348 18.06C32.7135 17.9107 33.1988 17.7333 33.5908 17.528L34.3468 20.384C33.8428 20.6267 33.1988 20.8413 32.4148 21.028C31.6495 21.2147 30.7068 21.308 29.5868 21.308C28.5788 21.308 27.6175 21.1773 26.7028 20.916C25.8068 20.636 25.0135 20.216 24.3228 19.656C23.6508 19.096 23.1095 18.3867 22.6988 17.528C22.3068 16.6693 22.1108 15.6427 22.1108 14.448C22.1108 13.384 22.2695 12.4133 22.5868 11.536C22.9228 10.64 23.3895 9.87467 23.9868 9.24C24.5842 8.60533 25.2935 8.12 26.1148 7.784C26.9548 7.42933 27.8788 7.252 28.8868 7.252C30.7348 7.252 32.2095 7.812 33.3108 8.932C34.4122 10.052 34.9628 11.648 34.9628 13.72V15.484ZM30.7348 12.656C30.7348 12.3387 30.6975 12.0307 30.6228 11.732C30.5482 11.4333 30.4268 11.172 30.2588 10.948C30.1095 10.7053 29.9042 10.5187 29.6428 10.388C29.4002 10.2387 29.1015 10.164 28.7468 10.164C28.0935 10.164 27.5522 10.3973 27.1228 10.864C26.6935 11.312 26.4415 11.928 26.3668 12.712L30.7348 12.656ZM37.6064 21V0.979999H41.6944V21H37.6064ZM49.214 16.632V21H45.098V0.979999H49.214V12.656L53.414 7.56H58.426L53.358 13.216L58.65 21H53.778L50.222 15.596L49.214 16.632ZM73.1896 14.196C73.1896 15.2973 73.003 16.2867 72.6296 17.164C72.275 18.0413 71.7803 18.788 71.1456 19.404C70.511 20.02 69.7643 20.496 68.9056 20.832C68.047 21.1493 67.123 21.308 66.1336 21.308C65.1443 21.308 64.2203 21.1587 63.3616 20.86C62.5216 20.5427 61.7936 20.0947 61.1776 19.516C60.5616 18.9373 60.0763 18.228 59.7216 17.388C59.367 16.5293 59.1896 15.5587 59.1896 14.476C59.1896 13.3373 59.367 12.32 59.7216 11.424C60.095 10.528 60.599 9.772 61.2336 9.156C61.8683 8.54 62.615 8.07333 63.4736 7.756C64.3323 7.42 65.2563 7.252 66.2456 7.252C67.235 7.252 68.1496 7.40133 68.9896 7.7C69.8483 7.99867 70.5856 8.44667 71.2016 9.044C71.8176 9.62267 72.303 10.3413 72.6576 11.2C73.0123 12.0587 73.1896 13.0573 73.1896 14.196ZM68.9336 14.336C68.9336 13.608 68.859 12.992 68.7096 12.488C68.5603 11.9653 68.355 11.5453 68.0936 11.228C67.8323 10.892 67.5336 10.6493 67.1976 10.5C66.8616 10.3507 66.5163 10.276 66.1616 10.276C65.807 10.276 65.4616 10.3413 65.1256 10.472C64.8083 10.6027 64.519 10.8267 64.2576 11.144C64.015 11.4613 63.819 11.8813 63.6696 12.404C63.5203 12.908 63.4456 13.552 63.4456 14.336C63.4456 15.6987 63.7256 16.6973 64.2856 17.332C64.8456 17.9667 65.4896 18.284 66.2176 18.284C66.5723 18.284 66.9083 18.2187 67.2256 18.088C67.5616 17.9387 67.851 17.7147 68.0936 17.416C68.355 17.0987 68.5603 16.688 68.7096 16.184C68.859 15.68 68.9336 15.064 68.9336 14.336ZM79.893 21H75.749V7.56H78.969L79.445 9.24C80.0423 8.624 80.6957 8.13867 81.405 7.784C82.1143 7.42933 82.9077 7.252 83.785 7.252C85.7077 7.252 87.0237 7.93333 87.733 9.296C88.3303 8.68 89.0023 8.18533 89.749 7.812C90.5143 7.43867 91.3263 7.252 92.185 7.252C93.6223 7.252 94.733 7.644 95.517 8.428C96.301 9.19333 96.693 10.3227 96.693 11.816V21H92.549V12.236C92.549 11.676 92.3997 11.228 92.101 10.892C91.8023 10.556 91.401 10.388 90.897 10.388C90.449 10.388 89.9823 10.5 89.497 10.724C89.0117 10.948 88.6103 11.2747 88.293 11.704V21H84.149V12.236C84.149 11.676 83.9997 11.228 83.701 10.892C83.4023 10.556 83.001 10.388 82.497 10.388C82.049 10.388 81.5823 10.5187 81.097 10.78C80.6117 11.0413 80.2103 11.3867 79.893 11.816V21ZM104.092 21H99.9482V7.56H103.168L103.644 9.24C104.242 8.624 104.895 8.13867 105.604 7.784C106.314 7.42933 107.107 7.252 107.984 7.252C109.907 7.252 111.223 7.93333 111.932 9.296C112.53 8.68 113.202 8.18533 113.948 7.812C114.714 7.43867 115.526 7.252 116.384 7.252C117.822 7.252 118.932 7.644 119.716 8.428C120.5 9.19333 120.892 10.3227 120.892 11.816V21H116.748V12.236C116.748 11.676 116.599 11.228 116.3 10.892C116.002 10.556 115.6 10.388 115.096 10.388C114.648 10.388 114.182 10.5 113.696 10.724C113.211 10.948 112.81 11.2747 112.492 11.704V21H108.348V12.236C108.348 11.676 108.199 11.228 107.9 10.892C107.602 10.556 107.2 10.388 106.696 10.388C106.248 10.388 105.782 10.5187 105.296 10.78C104.811 11.0413 104.41 11.3867 104.092 11.816V21ZM136.271 15.484H127.591V15.596C127.591 16.5293 127.955 17.2107 128.683 17.64C129.411 18.0693 130.326 18.284 131.427 18.284C132.193 18.284 132.865 18.2093 133.443 18.06C134.022 17.9107 134.507 17.7333 134.899 17.528L135.655 20.384C135.151 20.6267 134.507 20.8413 133.723 21.028C132.958 21.2147 132.015 21.308 130.895 21.308C129.887 21.308 128.926 21.1773 128.011 20.916C127.115 20.636 126.322 20.216 125.631 19.656C124.959 19.096 124.418 18.3867 124.007 17.528C123.615 16.6693 123.419 15.6427 123.419 14.448C123.419 13.384 123.578 12.4133 123.895 11.536C124.231 10.64 124.698 9.87467 125.295 9.24C125.893 8.60533 126.602 8.12 127.423 7.784C128.263 7.42933 129.187 7.252 130.195 7.252C132.043 7.252 133.518 7.812 134.619 8.932C135.721 10.052 136.271 11.648 136.271 13.72V15.484ZM132.043 12.656C132.043 12.3387 132.006 12.0307 131.931 11.732C131.857 11.4333 131.735 11.172 131.567 10.948C131.418 10.7053 131.213 10.5187 130.951 10.388C130.709 10.2387 130.41 10.164 130.055 10.164C129.402 10.164 128.861 10.3973 128.431 10.864C128.002 11.312 127.75 11.928 127.675 12.712L132.043 12.656ZM142.975 21H138.831V7.56H142.051L142.527 9.24C143.124 8.624 143.796 8.13867 144.543 7.784C145.29 7.42933 146.102 7.252 146.979 7.252C148.491 7.252 149.648 7.66267 150.451 8.484C151.254 9.30533 151.655 10.5093 151.655 12.096V21H147.511V12.516C147.511 11.8627 147.352 11.3493 147.035 10.976C146.736 10.584 146.288 10.388 145.691 10.388C145.243 10.388 144.767 10.5187 144.263 10.78C143.778 11.0413 143.348 11.3867 142.975 11.816V21Z" fill="url(#paint3_linear_5_37)"/>
<defs>
<linearGradient id="paint0_linear_5_37" x1="105.5" y1="33" x2="357.74" y2="55.9611" gradientUnits="userSpaceOnUse">
<stop stop-color="#14CAD6"/>
<stop offset="1" stop-color="#D714DB"/>
</linearGradient>
<linearGradient id="paint1_linear_5_37" x1="229.5" y1="26.5" x2="320.925" y2="-8.93396" gradientUnits="userSpaceOnUse">
<stop stop-color="#14CAD6"/>
<stop offset="1" stop-color="#D714DB"/>
</linearGradient>
<linearGradient id="paint2_linear_5_37" x1="104.5" y1="44.3012" x2="353.411" y2="57.3776" gradientUnits="userSpaceOnUse">
<stop stop-color="#14CAD6"/>
<stop offset="1" stop-color="#D714DB"/>
</linearGradient>
<linearGradient id="paint3_linear_5_37" x1="5.49999" y1="3.57147" x2="249.126" y2="100.642" gradientUnits="userSpaceOnUse">
<stop stop-color="#14CAD6"/>
<stop offset="0.994196" stop-color="#D714DB"/>
</linearGradient>
<clipPath id="clip0_5_37">
<rect width="148.997" height="60" fill="white" transform="translate(4 30)"/>
</clipPath>
</defs>
</svg>
