<?xml version="1.0" encoding="UTF-8" standalone="no"?>
<!-- Created with Inkscape (http://www.inkscape.org/) -->

<svg
   version="1.1"
   id="svg247"
   width="170.5107"
   height="172.91115"
   viewBox="0 0 170.5107 172.91115"
   sodipodi:docname="Linkedin_logo.svg"
   inkscape:version="1.1.1 (3bf5ae0d25, 2021-09-20, custom)"
   xmlns:inkscape="http://www.inkscape.org/namespaces/inkscape"
   xmlns:sodipodi="http://sodipodi.sourceforge.net/DTD/sodipodi-0.dtd"
   xmlns="http://www.w3.org/2000/svg"
   xmlns:svg="http://www.w3.org/2000/svg">
  <defs
     id="defs251">
    <mask
       maskUnits="userSpaceOnUse"
       id="mask389">
      <rect
         style="fill:#ffffff;stroke-width:7.11703"
         id="rect391"
         width="173.21066"
         height="172.8"
         x="0"
         y="0" />
    </mask>
  </defs>
  <sodipodi:namedview
     id="namedview249"
     pagecolor="#505050"
     bordercolor="#eeeeee"
     borderopacity="1"
     inkscape:pageshadow="0"
     inkscape:pageopacity="0"
     inkscape:pagecheckerboard="0"
     showgrid="false"
     inkscape:zoom="3.8384496"
     inkscape:cx="89.228735"
     inkscape:cy="69.559335"
     inkscape:window-width="945"
     inkscape:window-height="1044"
     inkscape:window-x="965"
     inkscape:window-y="26"
     inkscape:window-maximized="1"
     inkscape:current-layer="g253" />
  <g
     inkscape:groupmode="layer"
     inkscape:label="Image"
     id="g253"
     transform="translate(0.18029402,2.8795088)">
    <path
       style="fill:#ffffff;stroke-width:0.276128"
       d="m 8.3812571,169.72098 c -2.4981186,-0.69742 -5.0940884,-2.78321 -6.8392779,-5.49516 -1.84020332,-2.8596 -1.72069392,2.74377 -1.72069392,-80.67723 0,-67.89495 0.044252,-75.7446444 0.4367294,-77.4702364 C 1.0145222,2.7522446 3.2521018,0.06524563 6.8625522,-1.8527098 l 1.9328969,-1.026799 H 85.006807 161.21817 l 1.81461,0.873794 c 3.1926,1.53734843 5.2041,3.7169094 6.50988,7.0537694 l 0.78774,2.013048 V 83.713883 c 0,58.337617 -0.0779,76.811217 -0.32583,77.315867 -0.1792,0.3647 -0.6634,1.44251 -1.07598,2.39513 -0.90834,2.09724 -3.31934,4.48139 -5.78788,5.72342 l -1.64641,0.82839 -75.935236,0.0456 c -60.220479,0.0362 -76.1923809,-0.0262 -77.1778069,-0.3013 z M 50.490793,103.29175 V 61.734469 l -12.908989,-0.07176 -12.908989,-0.07176 v 41.700811 41.7008 l 12.908989,-0.0718 12.908989,-0.0718 z m 41.353772,17.74124 c 0.09627,-23.501726 0.225586,-27.048712 1.024355,-28.096044 0.115825,-0.151871 0.432494,-0.959545 0.703707,-1.794833 1.278004,-3.936021 4.525735,-6.965986 8.414753,-7.850524 2.44982,-0.557199 6.85567,-0.559595 8.98649,-0.0049 3.45107,0.898402 6.22188,3.813768 7.32341,7.705501 0.30275,1.069607 0.69943,2.317516 0.8815,2.773127 0.24653,0.616906 0.35312,7.260833 0.4175,26.025083 l 0.0865,25.19668 h 12.82903 12.82903 l -0.002,-26.30119 c -0.002,-28.648104 -0.19845,-33.499998 -1.5244,-37.76053 -0.21269,-0.683417 -0.65074,-2.168379 -0.97346,-3.299916 -0.68007,-2.38454 -2.31921,-5.766809 -3.79089,-7.822282 -3.86072,-5.392356 -9.10002,-8.349208 -17.45579,-9.851425 -3.80101,-0.683354 -12.23254,-0.537497 -13.74722,0.237813 -0.26036,0.133267 -1.21892,0.455487 -2.13014,0.716047 -5.54981,1.586941 -11.239075,5.984508 -14.408797,11.137398 l -0.622953,1.012714 -0.0086,-5.732503 -0.0086,-5.7325 -12.356733,0.07187 -12.356733,0.07188 -0.07094,41.281154 c -0.03902,22.70464 -0.01185,41.43647 0.06037,41.62631 0.102443,0.2693 2.952593,0.34516 12.967177,0.34516 H 91.746446 Z M 41.811672,50.107261 c 2.240805,-0.663398 4.979256,-2.382381 6.572609,-4.125763 0.778905,-0.852247 1.416192,-1.654909 1.416192,-1.783693 0,-0.128783 0.187455,-0.421609 0.41657,-0.65072 0.611198,-0.611199 1.516617,-2.861455 1.705334,-4.238302 0.09034,-0.65909 0.271155,-1.264413 0.401816,-1.345166 0.333383,-0.206044 0.298047,-4.738433 -0.03857,-4.946471 -0.151871,-0.09386 -0.276128,-0.415758 -0.276128,-0.715326 0,-2.196417 -2.4964,-6.458347 -4.956989,-8.462731 -3.11375,-2.536442 -6.256574,-3.532615 -10.490601,-3.325179 -2.38269,0.116735 -2.875148,0.240791 -5.073962,1.278197 -3.460191,1.632527 -6.003635,4.222726 -7.523347,7.661647 l -1.086617,2.45888 0.0021,3.727729 c 0.002,3.489696 0.05049,3.829638 0.759352,5.323651 0.41647,0.877753 0.757218,1.674137 0.757218,1.769741 0,0.354327 2.316518,3.291559 3.281518,4.160805 1.34685,1.213205 4.191776,2.813776 5.777608,3.250511 1.892446,0.521178 6.538749,0.500154 8.35586,-0.03781 z"
       id="path538" />
  </g>
</svg>
