<?xml version="1.0" encoding="UTF-8" standalone="no"?>
<svg
   width="96.559883"
   height="65.815735"
   version="1.1"
   id="svg166"
   sodipodi:docname="Redmine_logo.svg"
   inkscape:version="1.1.1 (3bf5ae0d25, 2021-09-20, custom)"
   xmlns:inkscape="http://www.inkscape.org/namespaces/inkscape"
   xmlns:sodipodi="http://sodipodi.sourceforge.net/DTD/sodipodi-0.dtd"
   xmlns="http://www.w3.org/2000/svg"
   xmlns:svg="http://www.w3.org/2000/svg">
  <defs
     id="defs170" />
  <sodipodi:namedview
     id="namedview168"
     pagecolor="#505050"
     bordercolor="#eeeeee"
     borderopacity="1"
     inkscape:pageshadow="0"
     inkscape:pageopacity="0"
     inkscape:pagecheckerboard="0"
     showgrid="false"
     inkscape:zoom="3.587559"
     inkscape:cx="165.01471"
     inkscape:cy="53.797024"
     inkscape:window-width="1920"
     inkscape:window-height="1062"
     inkscape:window-x="0"
     inkscape:window-y="18"
     inkscape:window-maximized="1"
     inkscape:current-layer="svg166" />
  <path
     style="fill:#a0a0a0;stroke:none;stroke-width:0.278741"
     d="M 0.15119963,65.045784 C 0.2343594,64.62231 0.8899926,59.760226 1.6081622,54.241153 2.3263319,48.72208 3.0025992,44.10591 3.1109788,43.982998 c 0.1962343,-0.222547 18.6659292,3.891125 18.9819972,4.227775 0.0913,0.09725 -0.159563,4.065255 -0.557483,8.81779 l -0.723489,8.640973 -10.406002,0.0731 L 0,65.815736 Z"
     id="path483" />
  <path
     style="fill:#a0a0a0;stroke:none;stroke-width:0.278741"
     d="M 13.200537,42.670482 C 8.2476917,41.479377 4.1362146,40.445687 4.0639208,40.373394 3.9484246,40.257898 10.687225,22.405335 11.153696,21.591024 c 0.118186,-0.206317 2.699109,1.007587 7.42838,3.493844 3.985997,2.095506 7.450325,3.931133 7.698506,4.079171 0.401286,0.239364 0.209541,1.11403 -1.732141,7.901319 -1.200858,4.197688 -2.219233,7.663347 -2.263055,7.701464 -0.04382,0.03812 -4.132004,-0.905235 -9.084849,-2.09634 z"
     id="path578" />
  <path
     style="fill:#a0a0a0;stroke:none;stroke-width:0.278741"
     d="M 20.951375,22.433741 C 17.501954,20.517433 14.280604,18.73698 13.792819,18.47718 l -0.886883,-0.472365 7.501775,-6.069368 c 4.125977,-3.3381526 7.660911,-6.1199455 7.855409,-6.1817623 0.285862,-0.090854 9.447428,9.9759563 10.73985,11.8010423 0.317127,0.447829 -0.210408,0.882971 -5.389189,4.445316 -3.1574,2.17189 -5.886979,3.941918 -6.06573,3.933393 -0.178751,-0.0085 -3.147256,-1.583387 -6.596676,-3.499695 z"
     id="path617" />
  <path
     style="fill:#a0a0a0;stroke:none;stroke-width:0.278741"
     d="m 38.091477,9.8937098 c -3.019085,-3.6179162 -5.38251,-6.6741876 -5.252056,-6.791714 0.130454,-0.1175267 2.624297,-0.8577011 5.541872,-1.644832 l 5.304682,-1.43114721 4.869366,6.9593e-4 4.869367,6.9594e-4 4.877968,1.50938114 c 2.682883,0.8301597 4.848846,1.6384591 4.813251,1.7962209 -0.0356,0.1577616 -2.152901,3.1785144 -4.705123,6.7127845 l -4.640403,6.425944 h -5.094839 -5.094839 z"
     id="path656" />
  <path
     style="fill:#a0a0a0;stroke:none;stroke-width:0.278741"
     d="M 63.152846,22.150818 C 60.101984,20.061854 57.506295,18.262702 57.384649,18.152703 57.137077,17.928833 67.988534,5.5221792 68.315366,5.6554295 68.591339,5.7679447 83.653195,17.976776 83.583139,18.031173 c -0.423032,0.328477 -14.443896,7.917762 -14.62771,7.917762 -0.140558,0 -2.75172,-1.709152 -5.802583,-3.798117 z"
     id="path695" />
  <path
     style="fill:#a0a0a0;stroke:none;stroke-width:0.278741"
     d="M 72.050847,37.138011 69.825871,29.362076 77.51353,25.32298 c 5.442791,-2.859642 7.746356,-3.939164 7.888673,-3.696877 0.50989,0.868068 7.199106,18.618058 7.066374,18.750789 -0.08264,0.08264 -4.009414,1.07566 -8.726162,2.206708 -4.716747,1.131048 -8.776309,2.118077 -9.021249,2.193399 -0.367347,0.112963 -0.83502,-1.224909 -2.670319,-7.638988 z"
     id="path734" />
  <path
     style="fill:#ffffff;stroke:none;stroke-width:0.278741"
     d="m 75.835501,65.739221 c -0.01532,-0.03833 -0.365043,-4.003618 -0.777152,-8.811759 -0.501625,-5.852533 -0.653649,-8.774632 -0.459935,-8.840575 0.847802,-0.288606 18.870621,-4.342448 18.932765,-4.258514 0.04046,0.05465 0.672734,4.677682 1.40505,10.273409 0.732316,5.595727 1.397222,10.518991 1.47757,10.940587 l 0.146088,0.766537 H 86.211625 c -5.691544,0 -10.3608,-0.03136 -10.376124,-0.06968 z"
     id="path773" />
  <path
     style="fill:#ffffff;stroke-width:0.278741"
     d="M 0.20324766,65.35913 C 0.27207806,65.069931 0.9581725,60.199248 1.7279021,54.53539 2.4976317,48.871533 3.1697182,44.19516 3.2214277,44.143451 3.3439046,44.020974 12.687876,46.024949 17.965494,47.305569 l 4.122015,1.000212 -0.152344,1.57398 c -0.08379,0.86569 -0.339413,4.145367 -0.568052,7.288173 -0.228639,3.142805 -0.490201,6.31 -0.58125,7.038211 l -0.165542,1.32402 h -8.573928 c -4.7156601,0 -9.3376593,0.07983 -10.2711094,0.177391 C 0.20839325,65.871329 0.08770894,65.84458 0.20324766,65.35913 Z"
     id="path849" />
  <path
     style="fill:#ffffff;stroke-width:0.278741"
     d="M 20.115152,44.156953 C 13.670421,42.668585 4.6298085,40.399485 4.4636534,40.22859 4.3549766,40.116813 5.6349036,36.387788 7.3079358,31.941868 10.691349,22.950777 11.179333,21.767819 11.504854,21.767819 c 0.251332,0 7.968448,3.922278 12.112127,6.156073 l 2.690369,1.450338 -0.160569,1.005078 c -0.233178,1.45957 -3.894564,14.249799 -4.070872,14.220675 -0.08192,-0.01353 -0.964258,-0.212895 -1.960757,-0.44303 z"
     id="path888" />
  <path
     style="fill:#ffffff;stroke-width:0.278741"
     d="m 20.839372,22.180919 c -3.511021,-1.928185 -6.675373,-3.658627 -7.031893,-3.845426 -0.61777,-0.323683 -0.306419,-0.614366 6.628744,-6.188719 4.002328,-3.2169962 7.430404,-5.9390378 7.617946,-6.0489817 0.462684,-0.271241 10.736633,10.9274637 10.736633,11.7030347 0,0.48886 -10.046533,7.509044 -11.130371,7.777534 -0.24056,0.05959 -3.310037,-1.469257 -6.821059,-3.397442 z"
     id="path927" />
  <path
     style="fill:#ffffff;stroke-width:0.278741"
     d="M 41.538646,13.762191 C 38.709532,10.456522 32.941211,3.274025 33.03788,3.1773557 33.076245,3.1389906 35.609324,2.4083906 38.666944,1.5538004 L 44.226253,0 l 4.738598,0.08269357 4.738598,0.08269355 4.529542,1.48698268 c 2.491248,0.8178404 4.52433,1.633158 4.517961,1.8118168 -0.0064,0.1786588 -2.048925,3.1470875 -4.539012,6.5965084 l -4.527433,6.271674 -4.908064,0.07599 -4.908065,0.076 z"
     id="path966" />
  <path
     style="fill:#ffffff;stroke-width:0.278741"
     d="m 63.236493,21.976875 c -3.013629,-2.031325 -5.479952,-3.818752 -5.480717,-3.97206 -0.0015,-0.29516 4.826009,-5.998943 8.381955,-9.9034773 l 2.119579,-2.3273602 3.593971,2.8940139 c 6.513242,5.2447326 9.434116,7.6252386 10.444646,8.5123656 l 0.997113,0.875348 -7.015301,3.807245 c -3.858415,2.093984 -7.13829,3.807244 -7.288611,3.807244 -0.15032,0 -2.739006,-1.661993 -5.752635,-3.693319 z"
     id="path1005" />
  <path
     style="fill:#ffffff;stroke-width:0.278741"
     d="m 73.807583,42.464343 c -0.864996,-2.639806 -3.815505,-12.972981 -3.724198,-13.042765 0.793701,-0.606611 14.710646,-7.653759 15.114901,-7.653759 0.24318,0 7.241462,18.371288 7.058939,18.530516 -0.08811,0.07686 -17.396172,4.326251 -17.621139,4.326251 -0.06635,0 -0.439182,-0.972109 -0.828503,-2.160243 z"
     id="path1044" />
  <path
     style="fill:#ffffff;stroke-width:0.278741"
     d="m 79.602436,65.600895 -3.647566,-0.08627 -0.514762,-5.776105 c -0.28312,-3.176858 -0.523217,-7.079225 -0.533551,-8.671927 l -0.01879,-2.895822 2.229929,-0.532097 c 3.655025,-0.872149 15.762711,-3.571567 16.01953,-3.571567 0.3057,0 0.370416,0.403196 1.925864,11.998702 l 1.306963,9.7431 -6.560027,-0.06087 c -3.608015,-0.03348 -8.201431,-0.09969 -10.207592,-0.147143 z"
     id="path1083" />
  <path
     style="fill:#ffffff;stroke-width:0.278741"
     d="M 0.40263635,64.763628 C 0.48391828,64.342032 1.1468335,59.707282 1.8757813,54.464184 2.604729,49.221087 3.2914344,44.785182 3.4017932,44.606618 c 0.2229017,-0.360663 3.294406,0.224609 12.8806688,2.454397 l 5.505136,1.280509 v 0.979224 c 0,1.359391 -1.118519,15.432896 -1.260583,15.860991 -0.08966,0.270185 -2.378774,0.348426 -10.193895,0.348426 H 0.25485102 Z"
     id="path1122" />
</svg>
